<svg xmlns="http://www.w3.org/2000/svg" xmlns:xlink="http://www.w3.org/1999/xlink" xmlns:lucid="lucid" width="1360" height="1760"><g transform="translate(0 0)" lucid:page-tab-id="0_0"><path d="M0 0h1360v1760H0z" fill="#fff"/><a xlink:href="https://docs.google.com/document/d/1RVm_2PXU2DQ7C2CSmI5mbuaZmb7Sx0T3gPzUNuFjRKU/edit#bookmark=id.pq45j37vfcx2" target="_blank"><path d="M404.96 1214c0-4.4 3.6-8 8-8H949.8c4.42 0 8 3.6 8 8v188.24c0 4.42-3.58 8-8 8H412.97c-4.4 0-8-3.58-8-8z" stroke="#000" stroke-opacity="0" fill="#bdb3f0"/><use xlink:href="#a" transform="matrix(1,0,0,1,424.9632827052827,1206.0115661212187) translate(176.6 106.10000000000001)"/><use xlink:href="#b" transform="matrix(1,0,0,1,424.9632827052827,1206.0115661212187) translate(263.5 106.10000000000001)"/><path class="lucid-link lucid-hotspot lucid-overlay-hotspot" d="M404.96 1214c0-4.4 3.6-8 8-8H949.8c4.42 0 8 3.6 8 8v188.24c0 4.42-3.58 8-8 8H412.97c-4.4 0-8-3.58-8-8z" fill="none"/></a><path d="M727.45 1206l.1-5.05.3-4.83.5-4.63.66-4.5.84-4.33 1-4.22 1.14-4.14 1.33-4.06 1.5-4.03 1.68-3.98 1.88-4 2.1-4 2.33-4.03 2.6-4.1 2.9-4.2 3.27-4.3 3.7-4.46 4.2-4.68 4.88-4.97 5.7-5.36 6.84-5.9 8.5-6.74 11.37-8.23 18.3-12.1 64.6-40.72 11.35-8.23 8.52-6.74 6.85-5.9 5.7-5.35 4.85-4.97 4.22-4.68 3.7-4.46 3.27-4.3 2.9-4.2 2.6-4.1 2.34-4.03 2.1-4 1.87-4 1.68-4 1.5-4.02 1.32-4.07 1.16-4.13 1-4.23.83-4.33.36-2.43" stroke="#666" fill="none"/><path d="M727.52 1206h-.57v-.02zM952.46 951.88l-9.24-.66 5.65-13.9z" fill="#666"/><path d="M953.1 952.43l-10.6-.76 6.48-15.96zm-9.16-1.66l7.87.57-3.05-12.4z" fill="#666"/><a xlink:href="https://docs.google.com/document/d/1RVm_2PXU2DQ7C2CSmI5mbuaZmb7Sx0T3gPzUNuFjRKU/edit#bookmark=id.qlcd5dj0cq8y" target="_blank"><path d="M856.84 805.56c0-4.42 3.58-8 8-8h168.28c4.42 0 8 3.58 8 8V925.7c0 4.43-3.58 8-8 8H864.84c-4.42 0-8-3.57-8-8z" stroke="#bdb3f0" stroke-width="4" fill="#fff"/><use xlink:href="#c" transform="matrix(1,0,0,1,876.8422937069504,797.555525043191) translate(30.924999999999997 72.10000000000001)"/><path class="lucid-link lucid-hotspot lucid-overlay-hotspot" d="M856.84 805.56c0-4.42 3.58-8 8-8h168.28c4.42 0 8 3.58 8 8V925.7c0 4.43-3.58 8-8 8H864.84c-4.42 0-8-3.57-8-8z" fill="none"/></a><path d="M635.3 1206l-.1-4.85-.28-4.64-.47-4.46-.64-4.32-.8-4.2-.95-4.1-1.12-4-1.28-3.96-1.46-3.9-1.64-3.9-1.83-3.88-2.04-3.9-2.28-3.93-2.53-4-2.85-4.08-3.2-4.2-3.58-4.33-4.1-4.55-4.7-4.8-5.5-5.17-6.54-5.63-8-6.34-10.34-7.5-14.9-9.86-83.56-51.15-10.33-7.5-8-6.33-6.53-5.63-5.5-5.17-4.7-4.8-4.1-4.55-3.6-4.34-3.18-4.2-2.85-4.07-2.54-4-2.26-3.93-2.04-3.9-1.82-3.88-1.64-3.9-1.45-3.9-1.3-3.95-1.12-4-.96-4.1-.8-4.2-.26-1.74" stroke="#666" fill="none"/><path d="M635.82 1206h-.57l.56-.03zM410.23 951.2l-9.24.7 3.54-14.58z" fill="#666"/><path d="M410.96 951.65l-10.62.8 4.08-16.74zm-9.32-.3l7.87-.6-4.84-11.82z" fill="#666"/><a xlink:href="https://docs.google.com/document/d/1RVm_2PXU2DQ7C2CSmI5mbuaZmb7Sx0T3gPzUNuFjRKU/edit#bookmark=id.qupfa4p6vs0w" target="_blank"><path d="M312.28 805.56c0-4.42 3.58-8 8-8h168.28c4.42 0 8 3.58 8 8V925.7c0 4.43-3.58 8-8 8H320.28c-4.42 0-8-3.57-8-8z" stroke="#bdb3f0" stroke-width="4" fill="#fff"/><use xlink:href="#d" transform="matrix(1,0,0,1,332.28076456898344,797.555525043191) translate(34.05 72.10000000000001)"/><path class="lucid-link lucid-hotspot lucid-overlay-hotspot" d="M312.28 805.56c0-4.42 3.58-8 8-8h168.28c4.42 0 8 3.58 8 8V925.7c0 4.43-3.58 8-8 8H320.28c-4.42 0-8-3.57-8-8z" fill="none"/></a><path d="M681.38 1206l-4.4-253.68" stroke="#666" fill="none"/><path d="M681.88 1206h-.73.73zM681.6 951.5l-9.26.17 4.4-14.34z" fill="#666"/><path d="M682.3 952l-10.64.18 5.04-16.47zm-9.28-.84l7.9-.14-4.16-12.08z" fill="#666"/><a xlink:href="https://docs.google.com/document/d/1RVm_2PXU2DQ7C2CSmI5mbuaZmb7Sx0T3gPzUNuFjRKU/edit#bookmark=id.xpmuavu40l5o" target="_blank"><path d="M584.56 805.56c0-4.42 3.58-8 8-8h168.28c4.42 0 8 3.58 8 8V925.7c0 4.43-3.58 8-8 8H592.56c-4.42 0-8-3.57-8-8z" stroke="#bdb3f0" stroke-width="4" fill="#fff"/><use xlink:href="#e" transform="matrix(1,0,0,1,604.5615291379669,797.555525043191) translate(4.549999999999997 72.10000000000001)"/><use xlink:href="#f" transform="matrix(1,0,0,1,604.5615291379669,797.555525043191) translate(82.5 72.10000000000001)"/><path class="lucid-link lucid-hotspot lucid-overlay-hotspot" d="M584.56 805.56c0-4.42 3.58-8 8-8h168.28c4.42 0 8 3.58 8 8V925.7c0 4.43-3.58 8-8 8H592.56c-4.42 0-8-3.57-8-8z" fill="none"/></a><path d="M404.42 795.55l.2-9.35.53-8.54.83-7.9 1.08-7.34 1.32-6.9 1.54-6.57 1.75-6.3 1.98-6.1 2.22-5.95 2.48-5.9 2.8-5.94 3.17-6.06 3.66-6.35 4.37-6.87 5.52-7.93 8.16-10.72 32.66-40.67 5.5-7.93 4.38-6.88 3.67-6.34 3.17-6.05 2.8-5.93 2.47-5.9 2.2-5.97 2-6.1 1.74-6.3 1.54-6.55 1.32-6.92 1.1-7.35.8-7.88.1-1.3" stroke="#666" fill="none"/><path d="M404.92 795.57l-.07 2h-1l.07-2.04zM516.15 552.2l-9.26-.36 5.18-14.07z" fill="#666"/><path d="M516.82 552.73l-10.64-.4 5.96-16.18zm-9.22-1.36l7.9.3-3.5-12.28z" fill="#666"/><path d="M20 568c0-4.42 3.58-8 8-8h168.28c4.42 0 8 3.58 8 8v120.15c0 4.42-3.58 8-8 8H28c-4.42 0-8-3.58-8-8z" stroke="#000" stroke-opacity="0" fill="#dedffc"/><use xlink:href="#g" transform="matrix(1,0,0,1,40,560) translate(11.625 72.10000000000001)"/><use xlink:href="#h" transform="matrix(1,0,0,1,40,560) translate(72.525 72.10000000000001)"/><path d="M676.7 795.55l-.47-23.2-1.28-20.43-1.92-18.33-2.46-16.7-2.95-15.46-3.4-14.54-3.9-13.94-4.43-13.63-5.1-13.7-6-14.28-7.5-15.88-10.8-20.58-43.93-78.67-7.48-15.87-6.02-14.28-5.1-13.7-4.43-13.63-3.9-13.94-3.4-14.54-2.94-15.45-2.45-16.7-1.92-18.3-1.28-20.45-.14-6.58" stroke="#666" fill="none"/><path d="M677.24 797.56h-1l-.04-2 1-.02zM548.13 351.94l-9.27.2 4.35-14.37z" fill="#666"/><path d="M548.83 352.42l-10.64.22 4.97-16.5zm-9.3-.8l7.9-.17-4.2-12.06z" fill="#666"/><path d="M451.03 208c0-4.42 3.6-8 8-8H627.3c4.43 0 8 3.58 8 8v120.15c0 4.42-3.57 8-8 8H459.04c-4.4 0-8-3.58-8-8z" stroke="#000" stroke-opacity="0" fill="#dedffc"/><use xlink:href="#i" transform="matrix(1,0,0,1,471.0334738475286,200) translate(27.074999999999996 61.3)"/><use xlink:href="#j" transform="matrix(1,0,0,1,471.0334738475286,200) translate(26.525 82.9)"/><use xlink:href="#k" transform="matrix(1,0,0,1,471.0334738475286,200) translate(60.525 82.9)"/><use xlink:href="#l" transform="matrix(1,0,0,1,471.0334738475286,200) translate(77.525 82.9)"/><path d="M676.7 795.55l.45-21.77 1.2-19.33 1.83-17.43 2.36-15.95 2.82-14.8 3.27-13.96 3.72-13.33 4.22-13 4.8-12.9 5.57-13.22 6.63-14.1 8.5-16.22 13.73-23.65 38.42-63.7 8.5-16.23 6.64-14.1 5.56-13.2 4.8-12.92 4.23-13 3.72-13.34 3.27-13.95 2.82-14.8 2.35-15.96 1.84-17.45 1.2-19.33.1-5.15" stroke="#666" fill="none"/><path d="M677.2 795.56l-.04 2h-1l.04-2.02zM823.9 352.13l-9.27-.2 4.93-14.16z" fill="#666"/><path d="M824.58 352.64l-10.64-.22 5.66-16.27zm-9.25-1.2l7.9.17-3.7-12.2z" fill="#666"/><path d="M727.45 208c0-4.42 3.6-8 8-8h168.3c4.4 0 8 3.58 8 8v120.15c0 4.42-3.6 8-8 8h-168.3c-4.4 0-8-3.58-8-8z" stroke="#000" stroke-opacity="0" fill="#dedffc"/><use xlink:href="#m" transform="matrix(1,0,0,1,747.4546207010039,200) translate(15.549999999999997 61.3)"/><use xlink:href="#n" transform="matrix(1,0,0,1,747.4546207010039,200) translate(54.55 61.3)"/><use xlink:href="#j" transform="matrix(1,0,0,1,747.4546207010039,200) translate(26.525 82.9)"/><use xlink:href="#k" transform="matrix(1,0,0,1,747.4546207010039,200) translate(60.525 82.9)"/><use xlink:href="#l" transform="matrix(1,0,0,1,747.4546207010039,200) translate(77.525 82.9)"/><path d="M948.98 795.55l-.22-11.05-.63-9.94-.94-9.05-1.24-8.32-1.5-7.78-1.7-7.35-1.97-7.02-2.22-6.8-2.5-6.7-2.82-6.73-3.26-6.92-3.86-7.4-4.86-8.4-7.2-11.28-27.67-41.18-4.85-8.4-3.87-7.4-3.25-6.9-2.83-6.73-2.5-6.72-2.2-6.8-1.97-7.03-1.72-7.34-1.47-7.77-1.23-8.34-.95-9.05-.27-4.4" stroke="#666" fill="none"/><path d="M949.55 797.56h-1l-.07-2 1-.02zM863.88 551.87l-9.26.32 4.14-14.43z" fill="#666"/><path d="M864.6 552.34l-10.65.37 4.75-16.55zm-9.3-.68l7.88-.27-4.37-12z" fill="#666"/><path d="M766.56 408c0-4.42 3.58-8 8-8h168.28c4.42 0 8 3.58 8 8v120.15c0 4.42-3.58 8-8 8H774.56c-4.42 0-8-3.58-8-8z" stroke="#000" stroke-opacity="0" fill="#dedffc"/><use xlink:href="#o" transform="matrix(1,0,0,1,786.5615291379669,400) translate(22.549999999999997 72.10000000000001)"/><path d="M1160 568c0-4.42 3.58-8 8-8h168.28c4.42 0 8 3.58 8 8v120.15c0 4.42-3.58 8-8 8H1168c-4.42 0-8-3.58-8-8z" stroke="#000" stroke-opacity="0" fill="#dedffc"/><use xlink:href="#p" transform="matrix(1,0,0,1,1180,560) translate(33.099999999999994 61.3)"/><use xlink:href="#q" transform="matrix(1,0,0,1,1180,560) translate(31.049999999999997 82.9)"/><path d="M380 73.83c0-2.77 2.24-5 5-5h590.74c2.76 0 5 2.23 5 5V120c0 2.77-2.24 5-5 5H385c-2.76 0-5-2.23-5-5z" stroke="#000" stroke-opacity="0" stroke-width="2" fill="#fff" fill-opacity="0"/><use xlink:href="#r" transform="matrix(1,0,0,1,400.00000000000006,68.8255242839951) translate(20.277777777777715 33.833333333333336)"/><use xlink:href="#s" transform="matrix(1,0,0,1,400.00000000000006,68.8255242839951) translate(123.83333333333327 33.833333333333336)"/><use xlink:href="#t" transform="matrix(1,0,0,1,400.00000000000006,68.8255242839951) translate(212.6481481481481 33.833333333333336)"/><use xlink:href="#u" transform="matrix(1,0,0,1,400.00000000000006,68.8255242839951) translate(285.09259259259255 33.833333333333336)"/><use xlink:href="#v" transform="matrix(1,0,0,1,400.00000000000006,68.8255242839951) translate(422.5 33.833333333333336)"/><path d="M466.96 114.63H891.2M466.96 114.63h-3M891.2 114.63h3" stroke="#b2b2b2" stroke-width="2" fill="none"/><a xlink:href="https://docs.google.com/document/d/1RVm_2PXU2DQ7C2CSmI5mbuaZmb7Sx0T3gPzUNuFjRKU/edit#bookmark=id.8h17br9coaay" target="_blank"><path d="M1130.76 805.56c0-4.42 3.58-8 8-8h168.28c4.4 0 8 3.58 8 8V925.7c0 4.43-3.6 8-8 8h-168.28c-4.42 0-8-3.57-8-8z" stroke="#bdb3f0" stroke-width="4" fill="#fff"/><use xlink:href="#w" transform="matrix(1,0,0,1,1150.755952725734,797.555525043191) translate(11.549999999999997 72.10000000000001)"/><use xlink:href="#x" transform="matrix(1,0,0,1,1150.755952725734,797.555525043191) translate(60.55 72.10000000000001)"/><path class="lucid-link lucid-hotspot lucid-overlay-hotspot" d="M1130.76 805.56c0-4.42 3.58-8 8-8h168.28c4.4 0 8 3.58 8 8V925.7c0 4.43-3.6 8-8 8h-168.28c-4.42 0-8-3.57-8-8z" fill="none"/></a><a xlink:href="https://docs.google.com/document/d/1RVm_2PXU2DQ7C2CSmI5mbuaZmb7Sx0T3gPzUNuFjRKU/edit#bookmark=id.eg0bekkfy8r1" target="_blank"><path d="M40 805.56c0-4.42 3.58-8 8-8h168.28c4.42 0 8 3.58 8 8V925.7c0 4.43-3.58 8-8 8H48c-4.42 0-8-3.57-8-8z" stroke="#bdb3f0" stroke-width="4" fill="#fff"/><use xlink:href="#y" transform="matrix(1,0,0,1,60,797.555525043191) translate(27.574999999999996 72.10000000000001)"/><path class="lucid-link lucid-hotspot lucid-overlay-hotspot" d="M40 805.56c0-4.42 3.58-8 8-8h168.28c4.42 0 8 3.58 8 8V925.7c0 4.43-3.58 8-8 8H48c-4.42 0-8-3.57-8-8z" fill="none"/></a><a xlink:href="https://docs.google.com/document/d/1RVm_2PXU2DQ7C2CSmI5mbuaZmb7Sx0T3gPzUNuFjRKU/edit#bookmark=id.fl9ab59z3ke0" target="_blank"><path d="M404.96 1488c0-4.42 3.6-8 8-8H949.8c4.42 0 8 3.58 8 8v120.15c0 4.42-3.58 8-8 8H412.97c-4.4 0-8-3.58-8-8z" stroke="#bdb3f0" stroke-width="4" fill="#fff"/><use xlink:href="#z" transform="matrix(1,0,0,1,424.96328270528284,1480) translate(231.025 61.3)"/><use xlink:href="#A" transform="matrix(1,0,0,1,424.96328270528284,1480) translate(219.025 82.9)"/><path class="lucid-link lucid-hotspot lucid-overlay-hotspot" d="M404.96 1488c0-4.42 3.6-8 8-8H949.8c4.42 0 8 3.58 8 8v120.15c0 4.42-3.58 8-8 8H412.97c-4.4 0-8-3.58-8-8z" fill="none"/></a><path d="M681.38 1410.24v51.14" stroke="#666" fill="none"/><path fill="#666"/><path d="M681.38 1476.38l-4.63-14.26h9.27z" fill="#666"/><path d="M681.38 1478l-5.32-16.38h10.65zm-3.94-15.38l3.94 12.14 3.95-12.14z" fill="#666"/><path d="M800 1206l.06-2.67.16-2.62.27-2.56.37-2.53.47-2.5.6-2.48.68-2.48.8-2.47.93-2.5 1.05-2.5 1.2-2.53 1.34-2.57 1.52-2.63 1.7-2.7 1.93-2.75 2.15-2.87 2.46-2.96 2.8-3.1 3.18-3.25 3.66-3.43 4.23-3.65 4.93-3.9 5.82-4.23 6.95-4.62 8.45-5.1 10.5-5.76 13.44-6.66 18.08-8.03 26.72-10.53 56.4-19.37 113.57-37.75 26.72-10.53 18.1-8.03 13.43-6.66 10.5-5.76 8.44-5.1 6.96-4.62 5.82-4.22 4.93-3.9 4.23-3.65 3.65-3.43 3.2-3.25 2.8-3.1 2.44-2.96 2.17-2.87 1.93-2.77 1.7-2.68 1.53-2.63 1.34-2.57 1.2-2.54 1.05-2.5.92-2.5.8-2.46.4-1.45" stroke="#666" fill="none"/><path d="M800.03 1206h-.53v-.05zM1225.37 952.07l-9.2-1.24 6.5-13.52z" fill="#666"/><path d="M1225.98 952.66l-10.55-1.43 7.47-15.52zm-9.05-2.23l7.82 1.05-2.3-12.57z" fill="#666"/><path d="M564 1206l-.05-2.62-.17-2.56-.26-2.52-.37-2.5-.47-2.45-.57-2.44-.67-2.42-.8-2.43-.9-2.45-1.04-2.46-1.18-2.5-1.33-2.53-1.5-2.57-1.68-2.65-1.9-2.73-2.13-2.8-2.44-2.94-2.75-3.04-3.13-3.2-3.6-3.4-4.18-3.6-4.88-3.85-5.74-4.16-6.86-4.55-8.33-5.04-10.34-5.67-13.18-6.54-17.63-7.83-25.63-10.1-48.3-16.64-136.2-44.5-25.62-10.1-17.63-7.84-13.2-6.53-10.32-5.67-8.33-5.03-6.86-4.55-5.74-4.17-4.87-3.85-4.17-3.6-3.6-3.38-3.15-3.2-2.75-3.06-2.43-2.92-2.13-2.8-1.9-2.74-1.68-2.65-1.5-2.6-1.32-2.53-1.17-2.5-1.04-2.45-.9-2.45-.8-2.43-.3-1.12" stroke="#666" fill="none"/><path d="M564.5 1206h-.53l.53-.05zM138.9 950.8l-9.2 1.27 2.66-14.76z" fill="#666"/><path d="M139.65 951.2l-10.55 1.46 3.04-16.95zm-9.32.3l7.82-1.1-5.57-11.5z" fill="#666"/><path d="M220 408c0-4.42 3.58-8 8-8h168.28c4.42 0 8 3.58 8 8v120.15c0 4.42-3.58 8-8 8H228c-4.42 0-8-3.58-8-8z" stroke="#000" stroke-opacity="0" fill="#dedffc"/><use xlink:href="#B" transform="matrix(1,0,0,1,239.99999999999997,400) translate(2.5749999999999886 72.10000000000001)"/><use xlink:href="#C" transform="matrix(1,0,0,1,239.99999999999997,400) translate(50.474999999999994 72.10000000000001)"/><use xlink:href="#D" transform="matrix(1,0,0,1,239.99999999999997,400) translate(70.475 72.10000000000001)"/><path d="M404.42 795.55l-.22-10.83-.6-9.75-.94-8.9-1.22-8.2-1.46-7.67-1.7-7.25-1.93-6.93-2.18-6.7-2.45-6.6-2.78-6.62-3.2-6.76-3.74-7.17-4.63-8-6.43-10.12-31.75-46.5-4.64-8.02-3.75-7.16-3.18-6.77-2.77-6.6-2.46-6.6-2.2-6.72-1.92-6.92-1.7-7.25-1.46-7.66-1.2-8.2-.95-8.9-.25-3.98" stroke="#666" fill="none"/><path d="M405 797.56h-1l-.08-2 1-.02zM317.33 551.86l-9.26.33 4.13-14.43z" fill="#666"/><path d="M318.04 552.34l-10.64.37 4.74-16.55zm-9.3-.67l7.9-.28-4.4-12z" fill="#666"/><path d="M420 408c0-4.42 3.58-8 8-8h168.28c4.42 0 8 3.58 8 8v120.15c0 4.42-3.58 8-8 8H428c-4.42 0-8-3.58-8-8z" stroke="#000" stroke-opacity="0" fill="#dedffc"/><use xlink:href="#E" transform="matrix(1,0,0,1,440.0000000000001,400) translate(9.049999999999997 61.3)"/><use xlink:href="#F" transform="matrix(1,0,0,1,440.0000000000001,400) translate(52 61.3)"/><use xlink:href="#G" transform="matrix(1,0,0,1,440.0000000000001,400) translate(22.074999999999996 82.9)"/><use xlink:href="#H" transform="matrix(1,0,0,1,440.0000000000001,400) translate(92.92500000000001 82.9)"/><path d="M966.72 408c0-4.42 3.58-8 8-8H1143c4.42 0 8 3.58 8 8v120.15c0 4.42-3.58 8-8 8H974.72c-4.42 0-8-3.58-8-8z" stroke="#000" stroke-opacity="0" fill="#dedffc"/><g><use xlink:href="#I" transform="matrix(1,0,0,1,986.7192354310167,400) translate(28.049999999999997 72.10000000000001)"/></g><path d="M948.98 795.55l.2-9.17.52-8.4.8-7.76 1.08-7.25 1.3-6.82 1.52-6.48 1.73-6.2 1.96-6.03 2.18-5.9 2.45-5.82 2.75-5.84 3.12-5.96 3.58-6.2 4.24-6.68 5.27-7.57 7.36-9.68 37.1-45.56 5.26-7.57 4.24-6.68 3.58-6.2 3.12-5.97 2.75-5.85 2.46-5.82 2.2-5.9 1.95-6 1.74-6.23 1.52-6.48 1.3-6.82 1.07-7.24.8-7.77.08-.98" stroke="#666" fill="none"/><path d="M949.48 795.57l-.07 2h-1l.08-2.04zM1062.87 552.2l-9.27-.36 5.2-14.07z" fill="#666"/><path d="M1063.53 552.73l-10.64-.42 5.96-16.15zm-9.22-1.36l7.9.3-3.47-12.28z" fill="#666"/><path d="M132.14 795.55l-.2-8.16-.5-6.7-.72-5.7-.9-5.12-1.1-4.78-1.37-4.8-1.88-5.52-8.94-23.37-1.37-4.8-1.1-4.78-.9-5.1-.5-3.98" stroke="#666" fill="none"/><path d="M132.74 797.56h-1l-.1-1.98 1-.05zM117.24 711.76l-9.25.5 3.83-14.5z" fill="#666"/><path d="M117.96 712.22l-10.63.58 4.4-16.65zm-9.3-.5l7.87-.43-4.6-11.92z" fill="#666"/><path d="M1222.9 795.55l.14-5.88.38-5.08.57-4.5.7-4.08.88-3.77 1.02-3.6 1.2-3.5 1.4-3.56 1.78-3.9 2.57-4.94 10.5-18.75 1.8-3.88 1.4-3.57 1.2-3.5 1-3.6.87-3.76.54-3" stroke="#666" fill="none"/><path d="M1223.4 795.6l-.14 1.96h-1l.14-2.04zM1255.53 712.35l-9.24-.72 5.72-13.86z" fill="#666"/><path d="M1256.18 712.9l-10.62-.83 6.58-15.92zm-9.17-1.72l7.88.62-3-12.42z" fill="#666"/><defs><path fill="#666" d="M30-248c118-7 216 8 213 122C240-48 200 0 122 0H30v-248zM63-27c89 8 146-16 146-99s-60-101-146-95v194" id="J"/><path fill="#666" d="M100-194c62-1 85 37 85 99 1 63-27 99-86 99S16-35 15-95c0-66 28-99 85-99zM99-20c44 1 53-31 53-75 0-43-8-75-51-75s-53 32-53 75 10 74 51 75" id="K"/><path fill="#666" d="M96-169c-40 0-48 33-48 73s9 75 48 75c24 0 41-14 43-38l32 2c-6 37-31 61-74 61-59 0-76-41-82-99-10-93 101-131 147-64 4 7 5 14 7 22l-32 3c-4-21-16-35-41-35" id="L"/><path fill="#666" d="M84 4C-5 8 30-112 23-190h32v120c0 31 7 50 39 49 72-2 45-101 50-169h31l1 190h-30c-1-10 1-25-2-33-11 22-28 36-60 37" id="M"/><path fill="#666" d="M210-169c-67 3-38 105-44 169h-31v-121c0-29-5-50-35-48C34-165 62-65 56 0H25l-1-190h30c1 10-1 24 2 32 10-44 99-50 107 0 11-21 27-35 58-36 85-2 47 119 55 194h-31v-121c0-29-5-49-35-48" id="N"/><path fill="#666" d="M100-194c63 0 86 42 84 106H49c0 40 14 67 53 68 26 1 43-12 49-29l28 8c-11 28-37 45-77 45C44 4 14-33 15-96c1-61 26-98 85-98zm52 81c6-60-76-77-97-28-3 7-6 17-6 28h103" id="O"/><path fill="#666" d="M117-194c89-4 53 116 60 194h-32v-121c0-31-8-49-39-48C34-167 62-67 57 0H25l-1-190h30c1 10-1 24 2 32 11-22 29-35 61-36" id="P"/><path fill="#666" d="M59-47c-2 24 18 29 38 22v24C64 9 27 4 27-40v-127H5v-23h24l9-43h21v43h35v23H59v120" id="Q"/><g id="a"><use transform="matrix(0.05,0,0,0.05,0,0)" xlink:href="#J"/><use transform="matrix(0.05,0,0,0.05,12.950000000000001,0)" xlink:href="#K"/><use transform="matrix(0.05,0,0,0.05,22.950000000000003,0)" xlink:href="#L"/><use transform="matrix(0.05,0,0,0.05,31.950000000000003,0)" xlink:href="#M"/><use transform="matrix(0.05,0,0,0.05,41.95,0)" xlink:href="#N"/><use transform="matrix(0.05,0,0,0.05,56.900000000000006,0)" xlink:href="#O"/><use transform="matrix(0.05,0,0,0.05,66.9,0)" xlink:href="#P"/><use transform="matrix(0.05,0,0,0.05,76.9,0)" xlink:href="#Q"/></g><path fill="#666" d="M185-189c-5-48-123-54-124 2 14 75 158 14 163 119 3 78-121 87-175 55-17-10-28-26-33-46l33-7c5 56 141 63 141-1 0-78-155-14-162-118-5-82 145-84 179-34 5 7 8 16 11 25" id="R"/><path fill="#666" d="M114-163C36-179 61-72 57 0H25l-1-190h30c1 12-1 29 2 39 6-27 23-49 58-41v29" id="S"/><g id="b"><use transform="matrix(0.05,0,0,0.05,0,0)" xlink:href="#R"/><use transform="matrix(0.05,0,0,0.05,12,0)" xlink:href="#Q"/><use transform="matrix(0.05,0,0,0.05,17,0)" xlink:href="#S"/><use transform="matrix(0.05,0,0,0.05,22.95,0)" xlink:href="#M"/><use transform="matrix(0.05,0,0,0.05,32.95,0)" xlink:href="#L"/><use transform="matrix(0.05,0,0,0.05,41.95,0)" xlink:href="#Q"/><use transform="matrix(0.05,0,0,0.05,46.95,0)" xlink:href="#M"/><use transform="matrix(0.05,0,0,0.05,56.95,0)" xlink:href="#S"/><use transform="matrix(0.05,0,0,0.05,62.900000000000006,0)" xlink:href="#O"/></g><path fill="#666" d="M155-56V0h-30v-56H8v-25l114-167h33v167h35v25h-35zm-30-156c-27 46-58 90-88 131h88v-131" id="T"/><path fill="#666" d="M33 0v-38h34V0H33" id="U"/><path fill="#666" d="M127-220V0H93v-220H8v-28h204v28h-85" id="V"/><path fill="#666" d="M24-231v-30h32v30H24zM24 0v-190h32V0H24" id="W"/><path fill="#666" d="M141-36C126-15 110 5 73 4 37 3 15-17 15-53c-1-64 63-63 125-63 3-35-9-54-41-54-24 1-41 7-42 31l-33-3c5-37 33-52 76-52 45 0 72 20 72 64v82c-1 20 7 32 28 27v20c-31 9-61-2-59-35zM48-53c0 20 12 33 32 33 41-3 63-29 60-74-43 2-92-5-92 41" id="X"/><path fill="#666" d="M24 0v-261h32V0H24" id="Y"/><path fill="#666" d="M135-143c-3-34-86-38-87 0 15 53 115 12 119 90S17 21 10-45l28-5c4 36 97 45 98 0-10-56-113-15-118-90-4-57 82-63 122-42 12 7 21 19 24 35" id="Z"/><g id="c"><use transform="matrix(0.05,0,0,0.05,0,0)" xlink:href="#T"/><use transform="matrix(0.05,0,0,0.05,10,0)" xlink:href="#U"/><use transform="matrix(0.05,0,0,0.05,15,0)" xlink:href="#V"/><use transform="matrix(0.05,0,0,0.05,25.3,0)" xlink:href="#M"/><use transform="matrix(0.05,0,0,0.05,35.3,0)" xlink:href="#Q"/><use transform="matrix(0.05,0,0,0.05,40.3,0)" xlink:href="#K"/><use transform="matrix(0.05,0,0,0.05,50.3,0)" xlink:href="#S"/><use transform="matrix(0.05,0,0,0.05,56.25,0)" xlink:href="#W"/><use transform="matrix(0.05,0,0,0.05,60.2,0)" xlink:href="#X"/><use transform="matrix(0.05,0,0,0.05,70.2,0)" xlink:href="#Y"/><use transform="matrix(0.05,0,0,0.05,74.15,0)" xlink:href="#Z"/></g><path fill="#666" d="M101-251c82-7 93 87 43 132L82-64C71-53 59-42 53-27h129V0H18c2-99 128-94 128-182 0-28-16-43-45-43s-46 15-49 41l-32-3c6-41 34-60 81-64" id="aa"/><path fill="#666" d="M212-179c-10-28-35-45-73-45-59 0-87 40-87 99 0 60 29 101 89 101 43 0 62-24 78-52l27 14C228-24 195 4 139 4 59 4 22-46 18-125c-6-104 99-153 187-111 19 9 31 26 39 46" id="ab"/><path fill="#666" d="M177-190C167-65 218 103 67 71c-23-6-38-20-44-43l32-5c15 47 100 32 89-28v-30C133-14 115 1 83 1 29 1 15-40 15-95c0-56 16-97 71-98 29-1 48 16 59 35 1-10 0-23 2-32h30zM94-22c36 0 50-32 50-73 0-42-14-75-50-75-39 0-46 34-46 75s6 73 46 73" id="ac"/><g id="d"><use transform="matrix(0.05,0,0,0.05,0,0)" xlink:href="#aa"/><use transform="matrix(0.05,0,0,0.05,10,0)" xlink:href="#U"/><use transform="matrix(0.05,0,0,0.05,15,0)" xlink:href="#ab"/><use transform="matrix(0.05,0,0,0.05,27.950000000000003,0)" xlink:href="#X"/><use transform="matrix(0.05,0,0,0.05,37.95,0)" xlink:href="#Q"/><use transform="matrix(0.05,0,0,0.05,42.95,0)" xlink:href="#X"/><use transform="matrix(0.05,0,0,0.05,52.95,0)" xlink:href="#Y"/><use transform="matrix(0.05,0,0,0.05,56.900000000000006,0)" xlink:href="#K"/><use transform="matrix(0.05,0,0,0.05,66.9,0)" xlink:href="#ac"/></g><path fill="#666" d="M126-127c33 6 58 20 58 59 0 88-139 92-164 29-3-8-5-16-6-25l32-3c6 27 21 44 54 44 32 0 52-15 52-46 0-38-36-46-79-43v-28c39 1 72-4 72-42 0-27-17-43-46-43-28 0-47 15-49 41l-32-3c6-42 35-63 81-64 48-1 79 21 79 65 0 36-21 52-52 59" id="ad"/><path fill="#666" d="M143 4C61 4 22-44 18-125c-5-107 100-154 193-111 17 8 29 25 37 43l-32 9c-13-25-37-40-76-40-61 0-88 39-88 99 0 61 29 100 91 101 35 0 62-11 79-27v-45h-74v-28h105v86C228-13 192 4 143 4" id="ae"/><g id="e"><use transform="matrix(0.05,0,0,0.05,0,0)" xlink:href="#ad"/><use transform="matrix(0.05,0,0,0.05,10,0)" xlink:href="#U"/><use transform="matrix(0.05,0,0,0.05,15,0)" xlink:href="#ae"/><use transform="matrix(0.05,0,0,0.05,29,0)" xlink:href="#O"/><use transform="matrix(0.05,0,0,0.05,39,0)" xlink:href="#Q"/><use transform="matrix(0.05,0,0,0.05,44,0)" xlink:href="#Q"/><use transform="matrix(0.05,0,0,0.05,49,0)" xlink:href="#W"/><use transform="matrix(0.05,0,0,0.05,52.95,0)" xlink:href="#P"/><use transform="matrix(0.05,0,0,0.05,62.95,0)" xlink:href="#ac"/></g><path fill="#666" d="M85-194c31 0 48 13 60 33l-1-100h32l1 261h-30c-2-10 0-23-3-31C134-8 116 4 85 4 32 4 16-35 15-94c0-66 23-100 70-100zm9 24c-40 0-46 34-46 75 0 40 6 74 45 74 42 0 51-32 51-76 0-42-9-74-50-73" id="af"/><g id="f"><use transform="matrix(0.05,0,0,0.05,0,0)" xlink:href="#R"/><use transform="matrix(0.05,0,0,0.05,12,0)" xlink:href="#Q"/><use transform="matrix(0.05,0,0,0.05,17,0)" xlink:href="#X"/><use transform="matrix(0.05,0,0,0.05,27,0)" xlink:href="#S"/><use transform="matrix(0.05,0,0,0.05,32.95,0)" xlink:href="#Q"/><use transform="matrix(0.05,0,0,0.05,37.95,0)" xlink:href="#O"/><use transform="matrix(0.05,0,0,0.05,47.95,0)" xlink:href="#af"/></g><path fill="#666" d="M30-248c87 1 191-15 191 75 0 78-77 80-158 76V0H30v-248zm33 125c57 0 124 11 124-50 0-59-68-47-124-48v98" id="ag"/><path fill="#666" d="M24-231v-30h32v30H24zM-9 49c24 4 33-6 33-30v-209h32V24c2 40-23 58-65 49V49" id="ah"/><g id="g"><use transform="matrix(0.05,0,0,0.05,0,0)" xlink:href="#ag"/><use transform="matrix(0.05,0,0,0.05,12,0)" xlink:href="#S"/><use transform="matrix(0.05,0,0,0.05,17.95,0)" xlink:href="#K"/><use transform="matrix(0.05,0,0,0.05,27.950000000000003,0)" xlink:href="#ah"/><use transform="matrix(0.05,0,0,0.05,31.899999999999995,0)" xlink:href="#O"/><use transform="matrix(0.05,0,0,0.05,41.9,0)" xlink:href="#L"/><use transform="matrix(0.05,0,0,0.05,50.9,0)" xlink:href="#Q"/></g><path fill="#666" d="M240 0l2-218c-23 76-54 145-80 218h-23L58-218 59 0H30v-248h44l77 211c21-75 51-140 76-211h43V0h-30" id="ai"/><g id="h"><use transform="matrix(0.05,0,0,0.05,0,0)" xlink:href="#ai"/><use transform="matrix(0.05,0,0,0.05,14.950000000000001,0)" xlink:href="#W"/><use transform="matrix(0.05,0,0,0.05,18.900000000000002,0)" xlink:href="#Z"/><use transform="matrix(0.05,0,0,0.05,27.900000000000002,0)" xlink:href="#Z"/><use transform="matrix(0.05,0,0,0.05,36.900000000000006,0)" xlink:href="#W"/><use transform="matrix(0.05,0,0,0.05,40.85000000000001,0)" xlink:href="#K"/><use transform="matrix(0.05,0,0,0.05,50.85000000000001,0)" xlink:href="#P"/></g><path fill="#666" d="M33 0v-248h34V0H33" id="aj"/><path fill="#666" d="M33-154v-36h34v36H33zM33 0v-36h34V0H33" id="ak"/><g id="i"><use transform="matrix(0.05,0,0,0.05,0,0)" xlink:href="#aj"/><use transform="matrix(0.05,0,0,0.05,5,0)" xlink:href="#P"/><use transform="matrix(0.05,0,0,0.05,15,0)" xlink:href="#Z"/><use transform="matrix(0.05,0,0,0.05,24,0)" xlink:href="#Q"/><use transform="matrix(0.05,0,0,0.05,29,0)" xlink:href="#X"/><use transform="matrix(0.05,0,0,0.05,39,0)" xlink:href="#Y"/><use transform="matrix(0.05,0,0,0.05,42.95,0)" xlink:href="#Y"/><use transform="matrix(0.05,0,0,0.05,46.900000000000006,0)" xlink:href="#X"/><use transform="matrix(0.05,0,0,0.05,56.900000000000006,0)" xlink:href="#Q"/><use transform="matrix(0.05,0,0,0.05,61.900000000000006,0)" xlink:href="#W"/><use transform="matrix(0.05,0,0,0.05,65.85000000000001,0)" xlink:href="#K"/><use transform="matrix(0.05,0,0,0.05,75.85000000000001,0)" xlink:href="#P"/><use transform="matrix(0.05,0,0,0.05,85.85000000000001,0)" xlink:href="#ak"/></g><path fill="#666" d="M205 0l-28-72H64L36 0H1l101-248h38L239 0h-34zm-38-99l-47-123c-12 45-31 82-46 123h93" id="al"/><g id="j"><use transform="matrix(0.05,0,0,0.05,0,0)" xlink:href="#al"/><use transform="matrix(0.05,0,0,0.05,12,0)" xlink:href="#ag"/><use transform="matrix(0.05,0,0,0.05,24,0)" xlink:href="#aj"/></g><path fill="#666" d="M234-2c-28 10-62 0-77-18C117 19 8 12 13-65c3-43 29-61 60-76-25-40-17-114 47-108 35 3 59 15 59 50 0 44-40 53-71 69 14 26 32 50 51 72 14-21 24-43 30-72l26 8c-9 33-21 57-38 82 13 13 33 22 57 15v23zM97-151c25-10 52-18 56-48-1-18-13-29-33-29-42 0-39 50-23 77zM42-66c-3 51 71 58 98 28-20-24-41-51-56-80-23 10-40 24-42 52" id="am"/><use transform="matrix(0.05,0,0,0.05,0,0)" xlink:href="#am" id="k"/><path fill="#666" d="M232-93c-1 65-40 97-104 97C67 4 28-28 28-90v-158h33c8 89-33 224 67 224 102 0 64-133 71-224h33v155" id="an"/><g id="l"><use transform="matrix(0.05,0,0,0.05,0,0)" xlink:href="#ae"/><use transform="matrix(0.05,0,0,0.05,14,0)" xlink:href="#an"/><use transform="matrix(0.05,0,0,0.05,26.950000000000003,0)" xlink:href="#aj"/><use transform="matrix(0.05,0,0,0.05,31.950000000000003,0)" xlink:href="#Z"/></g><path fill="#666" d="M140-251c81 0 123 46 123 126C263-46 219 4 140 4 59 4 17-45 17-125s42-126 123-126zm0 227c63 0 89-41 89-101s-29-99-89-99c-61 0-89 39-89 99S79-25 140-24" id="ao"/><g id="m"><use transform="matrix(0.05,0,0,0.05,0,0)" xlink:href="#ao"/><use transform="matrix(0.05,0,0,0.05,14,0)" xlink:href="#P"/><use transform="matrix(0.05,0,0,0.05,24,0)" xlink:href="#O"/></g><path fill="#666" d="M30 0v-248h187v28H63v79h144v27H63v87h162V0H30" id="ap"/><path fill="#666" d="M141 0L90-78 38 0H4l68-98-65-92h35l48 74 47-74h35l-64 92 68 98h-35" id="aq"/><path fill="#666" d="M115-194c55 1 70 41 70 98S169 2 115 4C84 4 66-9 55-30l1 105H24l-1-265h31l2 30c10-21 28-34 59-34zm-8 174c40 0 45-34 45-75s-6-73-45-74c-42 0-51 32-51 76 0 43 10 73 51 73" id="ar"/><g id="n"><use transform="matrix(0.05,0,0,0.05,0,0)" xlink:href="#ap"/><use transform="matrix(0.05,0,0,0.05,12,0)" xlink:href="#aq"/><use transform="matrix(0.05,0,0,0.05,21,0)" xlink:href="#X"/><use transform="matrix(0.05,0,0,0.05,31,0)" xlink:href="#N"/><use transform="matrix(0.05,0,0,0.05,45.95,0)" xlink:href="#ar"/><use transform="matrix(0.05,0,0,0.05,55.95,0)" xlink:href="#Y"/><use transform="matrix(0.05,0,0,0.05,59.900000000000006,0)" xlink:href="#O"/><use transform="matrix(0.05,0,0,0.05,69.9,0)" xlink:href="#ak"/></g><path fill="#666" d="M16-82v-28h88v28H16" id="as"/><path fill="#666" d="M160-131c35 5 61 23 61 61C221 17 115-2 30 0v-248c76 3 177-17 177 60 0 33-19 50-47 57zm-97-11c50-1 110 9 110-42 0-47-63-36-110-37v79zm0 115c55-2 124 14 124-45 0-56-70-42-124-44v89" id="at"/><g id="o"><use transform="matrix(0.05,0,0,0.05,0,0)" xlink:href="#ab"/><use transform="matrix(0.05,0,0,0.05,12.950000000000001,0)" xlink:href="#K"/><use transform="matrix(0.05,0,0,0.05,22.950000000000003,0)" xlink:href="#af"/><use transform="matrix(0.05,0,0,0.05,32.95,0)" xlink:href="#O"/><use transform="matrix(0.05,0,0,0.05,42.95,0)" xlink:href="#as"/><use transform="matrix(0.05,0,0,0.05,48.900000000000006,0)" xlink:href="#at"/><use transform="matrix(0.05,0,0,0.05,60.900000000000006,0)" xlink:href="#X"/><use transform="matrix(0.05,0,0,0.05,70.9,0)" xlink:href="#Z"/><use transform="matrix(0.05,0,0,0.05,79.9,0)" xlink:href="#O"/><use transform="matrix(0.05,0,0,0.05,89.9,0)" xlink:href="#af"/></g><path fill="#666" d="M106-169C34-169 62-67 57 0H25v-261h32l-1 103c12-21 28-36 61-36 89 0 53 116 60 194h-32v-121c2-32-8-49-39-48" id="au"/><g id="p"><use transform="matrix(0.05,0,0,0.05,0,0)" xlink:href="#V"/><use transform="matrix(0.05,0,0,0.05,8.950000000000001,0)" xlink:href="#O"/><use transform="matrix(0.05,0,0,0.05,18.950000000000003,0)" xlink:href="#L"/><use transform="matrix(0.05,0,0,0.05,27.950000000000003,0)" xlink:href="#au"/><use transform="matrix(0.05,0,0,0.05,37.95,0)" xlink:href="#W"/><use transform="matrix(0.05,0,0,0.05,41.900000000000006,0)" xlink:href="#P"/><use transform="matrix(0.05,0,0,0.05,51.900000000000006,0)" xlink:href="#W"/><use transform="matrix(0.05,0,0,0.05,55.85,0)" xlink:href="#L"/><use transform="matrix(0.05,0,0,0.05,64.85000000000001,0)" xlink:href="#X"/><use transform="matrix(0.05,0,0,0.05,74.85000000000001,0)" xlink:href="#Y"/></g><path fill="#666" d="M233-177c-1 41-23 64-60 70L243 0h-38l-65-103H63V0H30v-248c88 3 205-21 203 71zM63-129c60-2 137 13 137-47 0-61-80-42-137-45v92" id="av"/><path fill="#666" d="M101-234c-31-9-42 10-38 44h38v23H63V0H32v-167H5v-23h27c-7-52 17-82 69-68v24" id="aw"/><g id="q"><use transform="matrix(0.05,0,0,0.05,0,0)" xlink:href="#av"/><use transform="matrix(0.05,0,0,0.05,12.950000000000001,0)" xlink:href="#O"/><use transform="matrix(0.05,0,0,0.05,22.950000000000003,0)" xlink:href="#aw"/><use transform="matrix(0.05,0,0,0.05,27.950000000000003,0)" xlink:href="#O"/><use transform="matrix(0.05,0,0,0.05,37.95,0)" xlink:href="#S"/><use transform="matrix(0.05,0,0,0.05,43.900000000000006,0)" xlink:href="#O"/><use transform="matrix(0.05,0,0,0.05,53.900000000000006,0)" xlink:href="#P"/><use transform="matrix(0.05,0,0,0.05,63.900000000000006,0)" xlink:href="#L"/><use transform="matrix(0.05,0,0,0.05,72.9,0)" xlink:href="#O"/></g><path fill="#b2b2b2" d="M169-182c-1-43-94-46-97-3 18 66 151 10 154 114 3 95-165 93-204 36-6-8-10-19-12-30l50-8c3 46 112 56 116 5-17-69-150-10-154-114-4-87 153-88 188-35 5 8 8 18 10 28" id="ax"/><path fill="#b2b2b2" d="M25-224v-37h50v37H25zM25 0v-190h50V0H25" id="ay"/><path fill="#b2b2b2" d="M220-157c-53 9-28 100-34 157h-49v-107c1-27-5-49-29-50C55-147 81-57 75 0H25l-1-190h47c2 12-1 28 3 38 10-53 101-56 108 0 13-22 24-43 59-42 82 1 51 116 57 194h-49v-107c-1-25-5-48-29-50" id="az"/><path fill="#b2b2b2" d="M110-194c64 0 96 36 96 99 0 64-35 99-97 99-61 0-95-36-95-99 0-62 34-99 96-99zm-1 164c35 0 45-28 45-65 0-40-10-65-43-65-34 0-45 26-45 65 0 36 10 65 43 65" id="aA"/><path fill="#b2b2b2" d="M135-194c87-1 58 113 63 194h-50c-7-57 23-157-34-157-59 0-34 97-39 157H25l-1-190h47c2 12-1 28 3 38 12-26 28-41 61-42" id="aB"/><path fill="#b2b2b2" d="M137-138c1-29-70-34-71-4 15 46 118 7 119 86 1 83-164 76-172 9l43-7c4 19 20 25 44 25 33 8 57-30 24-41C81-84 22-81 20-136c-2-80 154-74 161-7" id="aC"/><g id="r"><use transform="matrix(0.07407407407407408,0,0,0.07407407407407408,0,0)" xlink:href="#ax"/><use transform="matrix(0.07407407407407408,0,0,0.07407407407407408,17.77777777777778,0)" xlink:href="#ay"/><use transform="matrix(0.07407407407407408,0,0,0.07407407407407408,25.185185185185187,0)" xlink:href="#az"/><use transform="matrix(0.07407407407407408,0,0,0.07407407407407408,48.88888888888889,0)" xlink:href="#aA"/><use transform="matrix(0.07407407407407408,0,0,0.07407407407407408,65.11111111111111,0)" xlink:href="#aB"/><use transform="matrix(0.07407407407407408,0,0,0.07407407407407408,81.33333333333334,0)" xlink:href="#aC"/></g><path fill="#b2b2b2" d="M140-251c80 0 125 45 125 126S219 4 139 4C58 4 15-44 15-125s44-126 125-126zm-1 214c52 0 73-35 73-88 0-50-21-86-72-86-52 0-73 35-73 86s22 88 72 88" id="aD"/><path fill="#b2b2b2" d="M190-63c-7 42-38 67-86 67-59 0-84-38-90-98-12-110 154-137 174-36l-49 2c-2-19-15-32-35-32-30 0-35 28-38 64-6 74 65 87 74 30" id="aE"/><path fill="#b2b2b2" d="M185-48c-13 30-37 53-82 52C43 2 14-33 14-96s30-98 90-98c62 0 83 45 84 108H66c0 31 8 55 39 56 18 0 30-7 34-22zm-45-69c5-46-57-63-70-21-2 6-4 13-4 21h74" id="aF"/><path fill="#b2b2b2" d="M133-34C117-15 103 5 69 4 32 3 11-16 11-54c-1-60 55-63 116-61 1-26-3-47-28-47-18 1-26 9-28 27l-52-2c7-38 36-58 82-57s74 22 75 68l1 82c-1 14 12 18 25 15v27c-30 8-71 5-69-32zm-48 3c29 0 43-24 42-57-32 0-66-3-65 30 0 17 8 27 23 27" id="aG"/><g id="s"><use transform="matrix(0.07407407407407408,0,0,0.07407407407407408,0,0)" xlink:href="#aD"/><use transform="matrix(0.07407407407407408,0,0,0.07407407407407408,20.740740740740744,0)" xlink:href="#aE"/><use transform="matrix(0.07407407407407408,0,0,0.07407407407407408,35.55555555555556,0)" xlink:href="#aF"/><use transform="matrix(0.07407407407407408,0,0,0.07407407407407408,50.370370370370374,0)" xlink:href="#aG"/><use transform="matrix(0.07407407407407408,0,0,0.07407407407407408,65.18518518518519,0)" xlink:href="#aB"/></g><path fill="#b2b2b2" d="M199 0l-22-63H83L61 0H9l90-248h61L250 0h-51zm-33-102l-36-108c-10 38-24 72-36 108h72" id="aH"/><path fill="#b2b2b2" d="M115-3C79 11 28 4 28-45v-112H4v-33h27l15-45h31v45h36v33H77v99c-1 23 16 31 38 25v30" id="aI"/><path fill="#b2b2b2" d="M25 0v-261h50V0H25" id="aJ"/><g id="t"><use transform="matrix(0.07407407407407408,0,0,0.07407407407407408,0,0)" xlink:href="#aH"/><use transform="matrix(0.07407407407407408,0,0,0.07407407407407408,19.185185185185187,0)" xlink:href="#aI"/><use transform="matrix(0.07407407407407408,0,0,0.07407407407407408,28.000000000000004,0)" xlink:href="#aJ"/><use transform="matrix(0.07407407407407408,0,0,0.07407407407407408,35.40740740740741,0)" xlink:href="#aG"/><use transform="matrix(0.07407407407407408,0,0,0.07407407407407408,50.22222222222223,0)" xlink:href="#aC"/></g><path fill="#b2b2b2" d="M24-248c120-7 223 5 221 122C244-46 201 0 124 0H24v-248zM76-40c74 7 117-18 117-86 0-67-45-88-117-82v168" id="aK"/><path fill="#b2b2b2" d="M85 4C-2 5 27-109 22-190h50c7 57-23 150 33 157 60-5 35-97 40-157h50l1 190h-47c-2-12 1-28-3-38-12 25-28 42-61 42" id="aL"/><g id="u"><use transform="matrix(0.07407407407407408,0,0,0.07407407407407408,0,0)" xlink:href="#aK"/><use transform="matrix(0.07407407407407408,0,0,0.07407407407407408,19.185185185185187,0)" xlink:href="#aA"/><use transform="matrix(0.07407407407407408,0,0,0.07407407407407408,35.40740740740741,0)" xlink:href="#aE"/><use transform="matrix(0.07407407407407408,0,0,0.07407407407407408,50.22222222222223,0)" xlink:href="#aL"/><use transform="matrix(0.07407407407407408,0,0,0.07407407407407408,66.44444444444446,0)" xlink:href="#az"/><use transform="matrix(0.07407407407407408,0,0,0.07407407407407408,90.14814814814817,0)" xlink:href="#aF"/><use transform="matrix(0.07407407407407408,0,0,0.07407407407407408,104.96296296296299,0)" xlink:href="#aB"/><use transform="matrix(0.07407407407407408,0,0,0.07407407407407408,121.18518518518522,0)" xlink:href="#aI"/></g><path fill="#b2b2b2" d="M135-150c-39-12-60 13-60 57V0H25l-1-190h47c2 13-1 29 3 40 6-28 27-53 61-41v41" id="aM"/><g id="v"><use transform="matrix(0.07407407407407408,0,0,0.07407407407407408,0,0)" xlink:href="#ax"/><use transform="matrix(0.07407407407407408,0,0,0.07407407407407408,17.77777777777778,0)" xlink:href="#aI"/><use transform="matrix(0.07407407407407408,0,0,0.07407407407407408,26.592592592592595,0)" xlink:href="#aM"/><use transform="matrix(0.07407407407407408,0,0,0.07407407407407408,36.96296296296297,0)" xlink:href="#aL"/><use transform="matrix(0.07407407407407408,0,0,0.07407407407407408,53.18518518518519,0)" xlink:href="#aE"/><use transform="matrix(0.07407407407407408,0,0,0.07407407407407408,68,0)" xlink:href="#aI"/><use transform="matrix(0.07407407407407408,0,0,0.07407407407407408,76.81481481481481,0)" xlink:href="#aL"/><use transform="matrix(0.07407407407407408,0,0,0.07407407407407408,93.03703703703704,0)" xlink:href="#aM"/><use transform="matrix(0.07407407407407408,0,0,0.07407407407407408,103.4074074074074,0)" xlink:href="#aF"/></g><path fill="#666" d="M54-142c48-35 137-8 131 61C196 18 31 33 14-55l32-4c7 23 22 37 52 37 35-1 51-22 54-58 4-55-73-65-99-34H22l8-134h141v27H59" id="aN"/><g id="w"><use transform="matrix(0.05,0,0,0.05,0,0)" xlink:href="#aN"/><use transform="matrix(0.05,0,0,0.05,10,0)" xlink:href="#U"/><use transform="matrix(0.05,0,0,0.05,15,0)" xlink:href="#al"/><use transform="matrix(0.05,0,0,0.05,27,0)" xlink:href="#ag"/><use transform="matrix(0.05,0,0,0.05,39,0)" xlink:href="#aj"/></g><g id="x"><use transform="matrix(0.05,0,0,0.05,0,0)" xlink:href="#av"/><use transform="matrix(0.05,0,0,0.05,12.950000000000001,0)" xlink:href="#O"/><use transform="matrix(0.05,0,0,0.05,22.950000000000003,0)" xlink:href="#aw"/><use transform="matrix(0.05,0,0,0.05,27.950000000000003,0)" xlink:href="#S"/><use transform="matrix(0.05,0,0,0.05,33.900000000000006,0)" xlink:href="#O"/><use transform="matrix(0.05,0,0,0.05,43.900000000000006,0)" xlink:href="#P"/><use transform="matrix(0.05,0,0,0.05,53.900000000000006,0)" xlink:href="#L"/><use transform="matrix(0.05,0,0,0.05,62.900000000000006,0)" xlink:href="#O"/></g><path fill="#666" d="M27 0v-27h64v-190l-56 39v-29l58-41h29v221h61V0H27" id="aO"/><path fill="#666" d="M108 0H70L1-190h34L89-25l56-165h34" id="aP"/><path fill="#666" d="M206 0h-36l-40-164L89 0H53L-1-190h32L70-26l43-164h34l41 164 42-164h31" id="aQ"/><g id="y"><use transform="matrix(0.05,0,0,0.05,0,0)" xlink:href="#aO"/><use transform="matrix(0.05,0,0,0.05,10,0)" xlink:href="#U"/><use transform="matrix(0.05,0,0,0.05,15,0)" xlink:href="#ao"/><use transform="matrix(0.05,0,0,0.05,29,0)" xlink:href="#aP"/><use transform="matrix(0.05,0,0,0.05,38,0)" xlink:href="#O"/><use transform="matrix(0.05,0,0,0.05,48,0)" xlink:href="#S"/><use transform="matrix(0.05,0,0,0.05,53.95,0)" xlink:href="#aP"/><use transform="matrix(0.05,0,0,0.05,62.95,0)" xlink:href="#W"/><use transform="matrix(0.05,0,0,0.05,66.9,0)" xlink:href="#O"/><use transform="matrix(0.05,0,0,0.05,76.9,0)" xlink:href="#aQ"/></g><path fill="#666" d="M110-160c48 1 74 30 74 79 0 53-28 85-80 85-65 0-83-55-86-122-5-90 50-162 133-122 14 7 22 21 27 39l-31 6c-5-40-67-38-82-6-9 19-15 44-15 74 11-20 30-34 60-33zm-7 138c34 0 49-23 49-58s-16-56-50-56c-29 0-50 16-49 49 1 36 15 65 50 65" id="aR"/><path fill="#666" d="M63-220v92h138v28H63V0H30v-248h175v28H63" id="aS"/><path fill="#666" d="M140-251c81 0 123 46 123 126C263-53 228-8 163 1c7 30 30 48 69 40v23c-55 16-95-15-103-61C56-3 17-48 17-125c0-80 42-126 123-126zm0 227c63 0 89-41 89-101s-29-99-89-99c-61 0-89 39-89 99S79-25 140-24" id="aT"/><g id="z"><use transform="matrix(0.05,0,0,0.05,0,0)" xlink:href="#aR"/><use transform="matrix(0.05,0,0,0.05,10,0)" xlink:href="#U"/><use transform="matrix(0.05,0,0,0.05,15,0)" xlink:href="#aS"/><use transform="matrix(0.05,0,0,0.05,24.950000000000003,0)" xlink:href="#al"/><use transform="matrix(0.05,0,0,0.05,36.95,0)" xlink:href="#aT"/></g><g id="A"><use transform="matrix(0.05,0,0,0.05,0,0)" xlink:href="#al"/><use transform="matrix(0.05,0,0,0.05,12,0)" xlink:href="#ar"/><use transform="matrix(0.05,0,0,0.05,22,0)" xlink:href="#ar"/><use transform="matrix(0.05,0,0,0.05,32,0)" xlink:href="#O"/><use transform="matrix(0.05,0,0,0.05,42,0)" xlink:href="#P"/><use transform="matrix(0.05,0,0,0.05,52,0)" xlink:href="#af"/><use transform="matrix(0.05,0,0,0.05,62,0)" xlink:href="#W"/><use transform="matrix(0.05,0,0,0.05,65.95,0)" xlink:href="#aq"/></g><path fill="#666" d="M115-194c53 0 69 39 70 98 0 66-23 100-70 100C84 3 66-7 56-30L54 0H23l1-261h32v101c10-23 28-34 59-34zm-8 174c40 0 45-34 45-75 0-40-5-75-45-74-42 0-51 32-51 76 0 43 10 73 51 73" id="aU"/><g id="B"><use transform="matrix(0.05,0,0,0.05,0,0)" xlink:href="#V"/><use transform="matrix(0.05,0,0,0.05,8.950000000000001,0)" xlink:href="#X"/><use transform="matrix(0.05,0,0,0.05,18.950000000000003,0)" xlink:href="#aU"/><use transform="matrix(0.05,0,0,0.05,28.950000000000003,0)" xlink:href="#Y"/><use transform="matrix(0.05,0,0,0.05,32.900000000000006,0)" xlink:href="#O"/></g><g id="C"><use transform="matrix(0.05,0,0,0.05,0,0)" xlink:href="#K"/><use transform="matrix(0.05,0,0,0.05,10,0)" xlink:href="#aw"/></g><g id="D"><use transform="matrix(0.05,0,0,0.05,0,0)" xlink:href="#ab"/><use transform="matrix(0.05,0,0,0.05,12.950000000000001,0)" xlink:href="#K"/><use transform="matrix(0.05,0,0,0.05,22.950000000000003,0)" xlink:href="#P"/><use transform="matrix(0.05,0,0,0.05,32.95,0)" xlink:href="#Q"/><use transform="matrix(0.05,0,0,0.05,37.95,0)" xlink:href="#O"/><use transform="matrix(0.05,0,0,0.05,47.95,0)" xlink:href="#P"/><use transform="matrix(0.05,0,0,0.05,57.95,0)" xlink:href="#Q"/><use transform="matrix(0.05,0,0,0.05,62.95,0)" xlink:href="#Z"/></g><g id="E"><use transform="matrix(0.05,0,0,0.05,0,0)" xlink:href="#J"/><use transform="matrix(0.05,0,0,0.05,12.950000000000001,0)" xlink:href="#X"/><use transform="matrix(0.05,0,0,0.05,22.950000000000003,0)" xlink:href="#Q"/><use transform="matrix(0.05,0,0,0.05,27.950000000000003,0)" xlink:href="#X"/></g><g id="F"><use transform="matrix(0.05,0,0,0.05,0,0)" xlink:href="#R"/><use transform="matrix(0.05,0,0,0.05,12,0)" xlink:href="#O"/><use transform="matrix(0.05,0,0,0.05,22,0)" xlink:href="#Q"/><use transform="matrix(0.05,0,0,0.05,27,0)" xlink:href="#as"/><use transform="matrix(0.05,0,0,0.05,32.95,0)" xlink:href="#at"/><use transform="matrix(0.05,0,0,0.05,44.95,0)" xlink:href="#X"/><use transform="matrix(0.05,0,0,0.05,54.95,0)" xlink:href="#Z"/><use transform="matrix(0.05,0,0,0.05,63.95,0)" xlink:href="#O"/><use transform="matrix(0.05,0,0,0.05,73.95,0)" xlink:href="#af"/></g><g id="G"><use transform="matrix(0.05,0,0,0.05,0,0)" xlink:href="#J"/><use transform="matrix(0.05,0,0,0.05,12.950000000000001,0)" xlink:href="#O"/><use transform="matrix(0.05,0,0,0.05,22.950000000000003,0)" xlink:href="#Q"/><use transform="matrix(0.05,0,0,0.05,27.950000000000003,0)" xlink:href="#X"/><use transform="matrix(0.05,0,0,0.05,37.95,0)" xlink:href="#W"/><use transform="matrix(0.05,0,0,0.05,41.900000000000006,0)" xlink:href="#Y"/><use transform="matrix(0.05,0,0,0.05,45.85000000000001,0)" xlink:href="#O"/><use transform="matrix(0.05,0,0,0.05,55.85,0)" xlink:href="#af"/></g><g id="H"><use transform="matrix(0.05,0,0,0.05,0,0)" xlink:href="#aj"/><use transform="matrix(0.05,0,0,0.05,5,0)" xlink:href="#P"/><use transform="matrix(0.05,0,0,0.05,15,0)" xlink:href="#aw"/><use transform="matrix(0.05,0,0,0.05,20,0)" xlink:href="#K"/></g><g id="I"><use transform="matrix(0.05,0,0,0.05,0,0)" xlink:href="#ae"/><use transform="matrix(0.05,0,0,0.05,14,0)" xlink:href="#an"/><use transform="matrix(0.05,0,0,0.05,26.950000000000003,0)" xlink:href="#aj"/><use transform="matrix(0.05,0,0,0.05,31.950000000000003,0)" xlink:href="#as"/><use transform="matrix(0.05,0,0,0.05,37.900000000000006,0)" xlink:href="#at"/><use transform="matrix(0.05,0,0,0.05,49.900000000000006,0)" xlink:href="#X"/><use transform="matrix(0.05,0,0,0.05,59.900000000000006,0)" xlink:href="#Z"/><use transform="matrix(0.05,0,0,0.05,68.9,0)" xlink:href="#O"/><use transform="matrix(0.05,0,0,0.05,78.9,0)" xlink:href="#af"/></g></defs></g></svg>