<svg xmlns="http://www.w3.org/2000/svg" xmlns:xlink="http://www.w3.org/1999/xlink" xmlns:lucid="lucid" width="1947.33" height="1484.24"><g transform="translate(-39.66666666666674 -17.0757374435291)" lucid:page-tab-id="0_0"><path d="M0 0h2039.17v1575.72H0z" fill="#fff"/><path d="M137 1481.32H65c-2.76 0-5-2.24-5-5V168.77c0-2.76 2.24-5 5-5h72" fill="#ccc"/><path d="M137 1476.32c0 2.76-2.24 5-5 5H65c-2.76 0-5-2.24-5-5V168.77c0-2.76 2.24-5 5-5h67c2.76 0 5 2.24 5 5zM137 1481.32h1825c2.76 0 5-2.24 5-5V168.77c0-2.76-2.24-5-5-5H137M137 1481.32V163.77M60 1151.68h1907M60 831.07h1907M60 505.94h1907" stroke="#b2b2b2" stroke-width="2" fill="none"/><use xlink:href="#a" transform="matrix(6.123233995736766e-17,-1,1,6.123233995736766e-17,59.99999999999997,505.9409359427125) translate(102.73394762354701 43.64940797826793)"/><use xlink:href="#b" transform="matrix(6.123233995736766e-17,-1,1,6.123233995736766e-17,59.99999999999997,505.9409359427125) translate(173.10918999320873 43.64940797826793)"/><use xlink:href="#c" transform="matrix(6.123233995736766e-17,-1,1,6.123233995736766e-17,59.99999999999994,831.0658486557325) translate(68.73722617559538 28.20118404346414)"/><use xlink:href="#d" transform="matrix(6.123233995736766e-17,-1,1,6.123233995736766e-17,59.99999999999994,831.0658486557325) translate(240.09808056351153 28.20118404346414)"/><use xlink:href="#e" transform="matrix(6.123233995736766e-17,-1,1,6.123233995736766e-17,59.99999999999994,831.0658486557325) translate(63.40901930919314 59.09763191307172)"/><use xlink:href="#f" transform="matrix(6.123233995736766e-17,-1,1,6.123233995736766e-17,59.99999999999994,831.0658486557325) translate(202.72911294344215 59.09763191307172)"/><use xlink:href="#g" transform="matrix(6.123233995736766e-17,-1,1,6.123233995736766e-17,59.999999999999915,1151.6751375810713) translate(79.61138300804126 43.64940797826793)"/><use xlink:href="#h" transform="matrix(6.123233995736766e-17,-1,1,6.123233995736766e-17,59.999999999999915,1151.6751375810713) translate(149.98662537770298 43.64940797826793)"/><use xlink:href="#i" transform="matrix(6.123233995736766e-17,-1,1,6.123233995736766e-17,59.999999999999915,1481.3156740817726) translate(92.94404808187582 43.64940797826793)"/><path d="M60.67 37.08h848v48h-848z" fill="none"/><use xlink:href="#j" transform="matrix(1,0,0,1,60.66666666666674,37.0757374435291) translate(0 31.209171169575104)"/><use xlink:href="#k" transform="matrix(1,0,0,1,60.66666666666674,37.0757374435291) translate(151.99335882520842 31.209171169575104)"/><use xlink:href="#l" transform="matrix(1,0,0,1,60.66666666666674,37.0757374435291) translate(289.96888482068744 31.209171169575104)"/><use xlink:href="#m" transform="matrix(1,0,0,1,60.66666666666674,37.0757374435291) translate(411.32326617520164 31.209171169575104)"/><use xlink:href="#n" transform="matrix(1,0,0,1,60.66666666666674,37.0757374435291) translate(597.3599333011814 31.209171169575104)"/><path d="M60.67 80H1960" stroke="#000" stroke-width="2" fill="none"/><path/><path d="M280 214h144v102c-24.05-17.03-39.02-17.03-48.1-17.03-14.4 0-33.55 17.03-47.95 17.03-8.93 0-24.05 0-47.95-17.03z" stroke="#333" stroke-width="2" fill="#fff"/><path d="M288 223h144v102c-24.05-17.03-39.02-17.03-48.1-17.03-14.4 0-33.55 17.03-47.95 17.03-8.93 0-24.05 0-47.95-17.03z" stroke="#333" stroke-width="2" fill="#fff"/><path d="M296 232h144v102c-24.05-17.03-39.02-17.03-48.1-17.03-14.4 0-33.55 17.03-47.95 17.03-8.93 0-24.05 0-47.95-17.03z" stroke="#333" stroke-width="2" fill="#fff"/><use xlink:href="#o" transform="matrix(1,0,0,1,301,237) translate(4.074999999999996 30.299999999999997)"/><use xlink:href="#p" transform="matrix(1,0,0,1,301,237) translate(68.975 30.299999999999997)"/><use xlink:href="#q" transform="matrix(1,0,0,1,301,237) translate(31.5 51.9)"/><use xlink:href="#r" transform="matrix(1,0,0,1,301,237) translate(71.5 51.9)"/><path d="M400 434c0 22.1-17.9 40-40 40s-40-17.9-40-40 17.9-40 40-40 40 17.9 40 40z" stroke="#333" stroke-width="2" fill="#fff"/><use xlink:href="#s" transform="matrix(1,0,0,1,325,399) translate(19.025 27.799999999999997)"/><use xlink:href="#t" transform="matrix(1,0,0,1,325,399) translate(0.5249999999999986 49.4)"/><path d="M360 330.03v44.73" stroke="#333" stroke-width="2" fill="none"/><path d="M361 330.03h-2v-.64l2-.93zM360 389.76l-4.64-14.26h9.28z" fill="#333"/><path d="M360 393l-6-18.5h12zm-3.26-16.5l3.26 10.03 3.26-10.03z" fill="#333"/><path d="M561 214h144v102c-24.05-17.03-39.02-17.03-48.1-17.03-14.4 0-33.55 17.03-47.95 17.03-8.93 0-24.05 0-47.95-17.03z" stroke="#333" stroke-width="2" fill="#fff"/><path d="M569 223h144v102c-24.05-17.03-39.02-17.03-48.1-17.03-14.4 0-33.55 17.03-47.95 17.03-8.93 0-24.05 0-47.95-17.03z" stroke="#333" stroke-width="2" fill="#fff"/><path d="M577 232h144v102c-24.05-17.03-39.02-17.03-48.1-17.03-14.4 0-33.55 17.03-47.95 17.03-8.93 0-24.05 0-47.95-17.03z" stroke="#333" stroke-width="2" fill="#fff"/><use xlink:href="#o" transform="matrix(1,0,0,1,582,237) translate(4.074999999999996 30.299999999999997)"/><use xlink:href="#p" transform="matrix(1,0,0,1,582,237) translate(68.975 30.299999999999997)"/><use xlink:href="#q" transform="matrix(1,0,0,1,582,237) translate(31.5 51.9)"/><use xlink:href="#u" transform="matrix(1,0,0,1,582,237) translate(71.5 51.9)"/><path d="M681 434c0 22.1-17.9 40-40 40s-40-17.9-40-40 17.9-40 40-40 40 17.9 40 40z" stroke="#333" stroke-width="2" fill="#fff"/><use xlink:href="#v" transform="matrix(1,0,0,1,606,399) translate(19.025 27.799999999999997)"/><use xlink:href="#t" transform="matrix(1,0,0,1,606,399) translate(0.5249999999999986 49.4)"/><path d="M641 330.03v44.73" stroke="#333" stroke-width="2" fill="none"/><path d="M642 330.03h-2v-.64l2-.93zM641 389.76l-4.64-14.26h9.28z" fill="#333"/><path d="M641 393l-6-18.5h12zm-3.26-16.5l3.26 10.03 3.26-10.03z" fill="#333"/><path d="M1309 214h144v102c-24.05-17.03-39.02-17.03-48.1-17.03-14.4 0-33.55 17.03-47.95 17.03-8.93 0-24.05 0-47.95-17.03z" stroke="#333" stroke-width="2" fill="#fff"/><path d="M1317 223h144v102c-24.05-17.03-39.02-17.03-48.1-17.03-14.4 0-33.55 17.03-47.95 17.03-8.93 0-24.05 0-47.95-17.03z" stroke="#333" stroke-width="2" fill="#fff"/><path d="M1325 232h144v102c-24.05-17.03-39.02-17.03-48.1-17.03-14.4 0-33.55 17.03-47.95 17.03-8.93 0-24.05 0-47.95-17.03z" stroke="#333" stroke-width="2" fill="#fff"/><use xlink:href="#w" transform="matrix(1,0,0,1,1330,237) translate(34.05 30.299999999999997)"/><use xlink:href="#x" transform="matrix(1,0,0,1,1330,237) translate(24.325000000000003 51.9)"/><use xlink:href="#y" transform="matrix(1,0,0,1,1330,237) translate(64.325 51.9)"/><path d="M1429 434c0 22.1-17.9 40-40 40s-40-17.9-40-40 17.9-40 40-40 40 17.9 40 40z" stroke="#333" stroke-width="2" fill="#fff"/><use xlink:href="#z" transform="matrix(1,0,0,1,1354,399) translate(11.849999999999998 27.799999999999997)"/><use xlink:href="#t" transform="matrix(1,0,0,1,1354,399) translate(0.5249999999999986 49.4)"/><path d="M1389 330.03v44.73" stroke="#333" stroke-width="2" fill="none"/><path d="M1390 330.03h-2v-.64l2-.93zM1389 389.76l-4.64-14.26h9.28z" fill="#333"/><path d="M1389 393l-6-18.5h12zm-3.26-16.5l3.26 10.03 3.26-10.03z" fill="#333"/><path d="M1620 214h144v102c-24.05-17.03-39.02-17.03-48.1-17.03-14.4 0-33.55 17.03-47.95 17.03-8.93 0-24.05 0-47.95-17.03z" stroke="#333" stroke-width="2" fill="#fff"/><path d="M1628 223h144v102c-24.05-17.03-39.02-17.03-48.1-17.03-14.4 0-33.55 17.03-47.95 17.03-8.93 0-24.05 0-47.95-17.03z" stroke="#333" stroke-width="2" fill="#fff"/><path d="M1636 232h144v102c-24.05-17.03-39.02-17.03-48.1-17.03-14.4 0-33.55 17.03-47.95 17.03-8.93 0-24.05 0-47.95-17.03z" stroke="#333" stroke-width="2" fill="#fff"/><use xlink:href="#w" transform="matrix(1,0,0,1,1641,237) translate(34.05 30.299999999999997)"/><use xlink:href="#x" transform="matrix(1,0,0,1,1641,237) translate(22.5925 51.9)"/><use xlink:href="#A" transform="matrix(1,0,0,1,1641,237) translate(62.5925 51.9)"/><path d="M1740 434c0 22.1-17.9 40-40 40s-40-17.9-40-40 17.9-40 40-40 40 17.9 40 40z" stroke="#333" stroke-width="2" fill="#fff"/><use xlink:href="#B" transform="matrix(1,0,0,1,1665,399) translate(10.1175 27.799999999999997)"/><use xlink:href="#t" transform="matrix(1,0,0,1,1665,399) translate(0.5249999999999986 49.4)"/><path d="M1700 330.03v44.73" stroke="#333" stroke-width="2" fill="none"/><path d="M1701 330.03h-2v-.64l2-.93zM1700 389.76l-4.64-14.26h9.28z" fill="#333"/><path d="M1700 393l-6-18.5h12zm-3.26-16.5l3.26 10.03 3.26-10.03z" fill="#333"/><path d="M452.5 244h95v60h-95z" stroke="#000" stroke-opacity="0" stroke-width="2" fill="#fff" fill-opacity="0"/><use xlink:href="#C" transform="matrix(1,0,0,1,457.5,249) translate(29.626480054330173 31.179289573921515)"/><path d="M1497 244h95v60h-95z" stroke="#000" stroke-opacity="0" stroke-width="2" fill="#fff" fill-opacity="0"/><use xlink:href="#C" transform="matrix(1,0,0,1,1502,249) translate(29.626480054330173 31.179289573921515)"/><path d="M1038.08 538.5c0 10.22-8.28 18.5-18.5 18.5-10.2 0-18.5-8.28-18.5-18.5s8.3-18.5 18.5-18.5c10.22 0 18.5 8.28 18.5 18.5z" stroke="#333" stroke-width="2" fill="#fff"/><path d="M1348 434l-29.48-.67-156.38-8.6-20.17.4-15.14.93-12.04 1.26-9.95 1.46-8.38 1.6-7.2 1.68-6.3 1.76-5.54 1.8-4.94 1.83-4.45 1.86-4 1.9-3.67 1.9-3.35 1.95-3.1 1.96-2.85 2-2.65 2-2.48 2.05-2.3 2.1-2.2 2.12-2.03 2.17-1.93 2.24-1.83 2.3-1.72 2.36-1.63 2.45-1.54 2.53-1.45 2.65-1.37 2.76-1.3 2.9-1.2 3.05-1.12 3.2-1.03 3.43-.93 3.65-.83 3.9-.66 3.94" stroke="#333" stroke-width="2" fill="none"/><path d="M1349.06 433.02l-.06.98.04 1.02-1.07-.02.05-2zM1025.45 501.86l-5.64 13.9-3.6-14.56z" fill="#333"/><path d="M1026.9 500.96l-7.32 18.03-4.68-18.9zm-6.86 11.58l3.97-9.78-6.5-.46z" fill="#333"/><path d="M1659 434l-26.94-.6-34.45-2.2-48.3-5.13-98.76-15.02-167.34-26.93-42.5-4.54-29.35-1.88-22.35-.48-17.9.36-14.84.92-12.56 1.32-10.82 1.6-9.47 1.8-8.37 1.95-7.48 2.1-6.74 2.18-6.12 2.27-5.6 2.35-5.14 2.42-4.75 2.48-4.43 2.55-4.13 2.6-3.86 2.7-3.63 2.76-3.43 2.82-3.25 2.93-3.08 3-2.94 3.13-2.8 3.24-2.66 3.36-2.55 3.5-2.43 3.68-2.33 3.85-2.24 4.06-2.13 4.28-2.02 4.55-1.9 4.83-1.8 5.18-1.7 5.6-1.54 6-1.4 6.56-1.2 7.15-1 7.9-.45 5.58" stroke="#333" stroke-width="2" fill="none"/><path d="M1660.06 433.02l-.06.98.04 1.02-1.07-.02.04-2zM1024.9 501.7l-5.2 14.06-4.05-14.44z" fill="#333"/><path d="M1026.32 500.74l-6.74 18.25-5.27-18.73zm-6.48 11.78l3.65-9.9-6.52-.25z" fill="#333"/><path d="M682 434l28.48-.65 166.85-9.76 19.75.38 14.94.93 11.95 1.26 9.88 1.45 8.35 1.6 7.2 1.7 6.28 1.74 5.55 1.8 4.95 1.84 4.45 1.87 4.04 1.9 3.67 1.9 3.37 1.96 3.12 1.98 2.88 2 2.67 2.03 2.5 2.07 2.33 2.1 2.2 2.15 2.06 2.2 1.95 2.26 1.85 2.32 1.74 2.4 1.64 2.47 1.56 2.58 1.47 2.68 1.4 2.8 1.3 2.95 1.23 3.1 1.14 3.27 1.05 3.48.94 3.7.85 4 .7 4.28.02.1" stroke="#333" stroke-width="2" fill="none"/><path d="M682.03 435l-1.1.02.07-1.02-.03-.98 1-.02zM1019.36 515.76l-5.6-13.9 9.24-.65z" fill="#333"/><path d="M1019.58 519l-7.27-18.05 12-.83zm-4.4-16.25l3.96 9.78 2.55-10.23z" fill="#333"/><path d="M401 434l26.56-.58 34.2-2.18 48.63-5.2 290.97-43 29.38-1.87 22.25-.5 17.77.37 14.68.92 12.4 1.3 10.7 1.57 9.33 1.77 8.25 1.93 7.37 2.06 6.63 2.14 6 2.23 5.5 2.3 5.06 2.4 4.66 2.43 4.33 2.5 4.03 2.56 3.8 2.63 3.55 2.7 3.35 2.77 3.18 2.86 3.02 2.95 2.87 3.05 2.7 3.16 2.62 3.28 2.5 3.42 2.37 3.58 2.26 3.76 2.17 3.95 2.08 4.17 1.98 4.43 1.86 4.7 1.76 5.06 1.64 5.42 1.5 5.86 1.35 6.37 1.16 6.96.97 7.65.4 4.88" stroke="#333" stroke-width="2" fill="none"/><path d="M401.03 435l-1.1.02.07-1.02-.03-.98L401 433zM1019.45 515.76l-5.22-14.07 9.27-.4z" fill="#333"/><path d="M1019.58 519l-6.76-18.25 12-.5zm-3.93-16.36l3.67 9.88 2.84-10.15z" fill="#333"/><a xlink:href="https://docs.google.com/document/d/1lr-3JZYcTnyxKvPvO-J4kLCUUiqJe_rnPNKXNGw742w/edit" target="_blank"><path d="M660 620h160v120H660z" stroke="#333" stroke-width="2" fill-opacity="0"/><use xlink:href="#D" transform="matrix(1,0,0,1,665,625) translate(43.225 58.6)"/><path class="lucid-link lucid-hotspot lucid-overlay-hotspot" d="M660 620h160v120H660z" fill="none"/></a><path d="M1020 620l80 60-80 60-80-60z" stroke="#333" stroke-width="2" fill="#fff"/><use xlink:href="#E" transform="matrix(1,0,0,1,945,625) translate(41.525 58.6)"/><path d="M821 680h99.1" stroke="#333" stroke-width="2" fill="none"/><path d="M821 681h-1v-2h1zM935.1 680l-14.27 4.64v-9.28z" fill="#333"/><path d="M938.33 680l-18.5 6v-12zm-16.5 3.26l10.03-3.26-10.03-3.26z" fill="#333"/><path d="M1000.07 538.5H619V680h21.76" stroke="#333" stroke-width="2" fill="none"/><path d="M1001.08 538.5l.13 1h-1.13v-2h1.14zM655.76 680l-14.26 4.64v-9.28z" fill="#333"/><path d="M659 680l-18.5 6v-12zm-16.5 3.26l10.03-3.26-10.03-3.26z" fill="#333"/><path d="M1220 620h160v120h-160z" stroke="#333" stroke-width="2" fill="#fff"/><path d="M1236 620v120m128-120v120" stroke="#333" stroke-width="2" fill="none"/><use xlink:href="#F" transform="matrix(1,0,0,1,1245,625) translate(24.525 47.8)"/><use xlink:href="#G" transform="matrix(1,0,0,1,1245,625) translate(8.574999999999996 69.4)"/><path d="M1145.66 681h-44v-2h44zm55.1 0H1175v-2h25.76z" fill="#333"/><path d="M1101.67 681h-3l1.33-1-1.33-1h3zM1215.76 680l-14.26 4.64v-9.28z" fill="#333"/><path d="M1219 680l-18.5 6v-12zm-16.5 3.26l10.03-3.26-10.03-3.26z" fill="#333"/><use xlink:href="#H" transform="matrix(1,0,0,1,1145.6583335,669.2) translate(0 14.4)"/><path d="M1021 618.75h-2v-19.6h2zm0-41.2h-2v-1.36h2zM1021 620.75l-1-.75-1 .75v-2h2zM1024.64 575.46h-9.28l4.64-14.27z" fill="#333"/><path d="M1026 576.46h-12l6-18.5zm-9.26-2h6.52l-3.26-10.03z" fill="#333"/><use xlink:href="#I" transform="matrix(1,0,0,1,1008.525,577.5519432759052) translate(0 14.4)"/><path d="M1528 620h128l-32 120h-128z" stroke="#333" stroke-width="2" fill="#fff"/><use xlink:href="#J" transform="matrix(1,0,0,1,1501,625) translate(59.025 58.6)"/><path d="M1381 680h111.73" stroke="#333" stroke-width="2" fill="none"/><path d="M1381 681h-1v-2h1zM1507.73 680l-14.27 4.64v-9.28z" fill="#333"/><path d="M1510.97 680l-18.5 6v-12zm-16.5 3.26l10.02-3.26-10.04-3.26z" fill="#333"/><path d="M1784 940c8.84 0 16 26.86 16 60s-7.16 60-16 60h-128c-8.84 0-16-26.86-16-60s7.16-60 16-60z" stroke="#333" stroke-width="2" fill="#fff"/><path d="M1784 1060c-8.84 0-16-26.86-16-60s7.16-60 16-60" stroke="#333" stroke-width="2" fill="none"/><use xlink:href="#K" transform="matrix(1,0,0,1,1645,945) translate(16.074999999999996 58.6)"/><path d="M721 1048c0 6.63-26.86 12-60 12s-60-5.37-60-12v-96c0-6.63 26.86-12 60-12s60 5.37 60 12z" stroke="#333" stroke-width="2" fill="#fff"/><path d="M721 952c0 6.63-26.86 12-60 12s-60-5.37-60-12" stroke="#333" stroke-width="2" fill="none"/><use xlink:href="#L" transform="matrix(1,0,0,1,606,969) translate(16.525 46.6)"/><path d="M832 940h96l32 60-32 60h-96l-32-60z" stroke="#333" stroke-width="2" fill="#fff"/><use xlink:href="#M" transform="matrix(1,0,0,1,805,945) translate(4.099999999999994 58.6)"/><use xlink:href="#N" transform="matrix(1,0,0,1,805,945) translate(82.05 58.6)"/><path d="M360 940h160v120H360z" stroke="#333" stroke-width="2" fill="#fff"/><path d="M376 940v120m128-120v120" stroke="#333" stroke-width="2" fill="none"/><use xlink:href="#O" transform="matrix(1,0,0,1,385,945) translate(25.525 58.6)"/><use xlink:href="#P" transform="matrix(1,0,0,1,385,945) translate(55.475 58.6)"/><path d="M1256 940l80 60-80 60-80-60z" stroke="#333" stroke-width="2" fill="#fff"/><path d="M1222.52 984.7h66.96v30.6h-66.96z" fill="#fff" fill-opacity="0"/><path d="M1232.22 1014.25l-.4.5c-5.03-2.86-7.77-8.25-7.77-13.67 0-5.9 2.78-10.5 7.88-13.53l.3.5c-4.45 3.8-5.44 6.78-5.44 12.93 0 5.94.95 9.54 5.42 13.27M1239.4 1002l.5-1.1c.6-1.35 1.7-3.04 3-4.42.83-.86 1.8-1.43 2.52-1.43.9 0 1.5.67 1.5 1.63 0 .95-.54 1.72-1.5 1.72-.57 0-.83-.35-1.1-.83-.2-.32-.3-.45-.52-.45-.58 0-1.47 1.06-2.62 3-1.37 2.36-1.95 3.64-3.54 9h-2.43l2.6-9.32c.45-1.66.5-1.94.5-2.6 0-.68-.57-.84-1.2-.84-.26 0-.5.03-1 .1v-.55l4.95-.85.1.06M1247.5 988.64l-4.2 3.38-.6-.26c1.03-.86 1.57-1.56 1.57-1.78 0-.4-.5-.48-1.56-.48h-9.1v-1.72h9.1c.9 0 1.57-.07 1.57-.48 0-.3-.67-.86-1.6-1.8l.58-.24M1250.72 1013.6l-.32-.6c1.75-1.17 2.65-2.35 2.65-3.4 0-.23-.2-.42-.45-.42s-.57.13-.92.13c-1.2 0-1.85-.53-1.85-1.62 0-1.08.76-1.82 1.9-1.82 1.44 0 2.56 1.12 2.56 2.78 0 1.9-1.38 3.92-3.58 4.97M1278.82 995.46l-.16 1.02h-2.68l-2.77 10.47c-.02.13-.06.35-.06.44 0 .4.2.5.48.5.5 0 1.02-.5 2.6-2.52l.4.23c-1.9 2.94-2.9 3.87-4.56 3.87-.86 0-1.47-.38-1.47-1.18 0-.36.25-1.35.5-2.37l2.5-9.45h-2.4c-.03-.1-.03-.2-.03-.2 0-.34.28-.62 1.05-.78 1.02-.23 3.1-1.8 4.24-3.5.13-.2.32-.3.45-.3.2 0 .3.1.3.25 0 0 0 .16-.04.23l-.9 3.28h2.56M1279.75 988.06l.38-.5c4.88 2.93 7.78 8.25 7.78 13.68 0 5.9-2.8 10.43-7.87 13.52l-.28-.5c4.53-3.74 5.42-6.74 5.42-12.93 0-5.96-.8-9.63-5.42-13.27"/><path d="M1408 940h160v120h-160z" stroke="#333" stroke-width="2" fill="#fff"/><path d="M1424 940v120m128-120v120" stroke="#333" stroke-width="2" fill="none"/><use xlink:href="#Q" transform="matrix(1,0,0,1,1433,945) translate(16.525 58.6)"/><use xlink:href="#P" transform="matrix(1,0,0,1,1433,945) translate(64.475 58.6)"/><path d="M1641.03 680H1841v320h-21.76" stroke="#333" stroke-width="2" fill="none"/><path d="M1641.03 681h-1.3l.54-2h.76zM1818.5 1004.64l-14.26-4.64 14.26-4.64z" fill="#333"/><path d="M1819.5 1006l-18.5-6 18.5-6zm-12.03-6l10.03 3.26v-6.52zM1129.74 1001H979.37v-2h150.37zm44.6 0h-15.25v-2h15.23z" fill="#333"/><path d="M1176 1000l1.33 1h-3v-2h3zM978.64 1004.64l-14.27-4.64 14.27-4.64z" fill="#333"/><path d="M979.64 1006l-18.5-6 18.5-6zm-12.03-6l10.04 3.26v-6.52z" fill="#333"/><use xlink:href="#H" transform="matrix(1,0,0,1,1129.7437407759883,989.2) translate(0 14.4)"/><path d="M1282.7 840c9.83 0 17.8 10.07 17.8 22.5s-7.97 22.5-17.8 22.5h-53.4c-9.83 0-17.8-10.07-17.8-22.5s7.97-22.5 17.8-22.5z" stroke="#333" stroke-width="2" fill="#fff"/><use xlink:href="#R" transform="matrix(1,0,0,1,1216.5,845) translate(21 21.1)"/><path d="M1257 938.75h-2v-15.58h2zM1257 940.75l-1-.75-1 .75v-2h2zM1260 901.58h-8l4-12.34z" fill="#333"/><path d="M1261.06 901.58h-2.1l-2.96-9.1-2.96 9.1h-2.1L1256 886z" fill="#333"/><use xlink:href="#I" transform="matrix(1,0,0,1,1244.525,901.575) translate(0 14.4)"/><path d="M1639 1000h-51.76" stroke="#333" stroke-width="2" fill="none"/><path d="M1640 1000l.03 1H1639v-2h1.04zM1586.5 1004.64l-14.26-4.64 14.26-4.64z" fill="#333"/><path d="M1587.5 1006l-18.5-6 18.5-6zm-12.03-6l10.03 3.26v-6.52z" fill="#333"/><path d="M1407 1000h-51.1" stroke="#333" stroke-width="2" fill="none"/><path d="M1408 1001h-1v-2h1zM1355.17 1004.64l-14.27-4.64 14.27-4.64z" fill="#333"/><path d="M1356.17 1006l-18.5-6 18.5-6zm-12.03-6l10.03 3.26v-6.52z" fill="#333"/><path d="M798.87 1000h-58.63" stroke="#333" stroke-width="2" fill="none"/><path d="M800 1000l.53 1h-1.66v-2h1.66zM739.5 1004.64l-14.26-4.64 14.26-4.64z" fill="#333"/><path d="M740.5 1006l-18.5-6 18.5-6zm-12.03-6l10.03 3.26v-6.52z" fill="#333"/><path d="M600 1000h-60.76" stroke="#333" stroke-width="2" fill="none"/><path d="M601 1001h-1v-2h1zM538.5 1004.64l-14.26-4.64 14.26-4.64z" fill="#333"/><path d="M539.5 1006l-18.5-6 18.5-6zm-12.03-6l10.03 3.26v-6.52z" fill="#333"/><path d="M1038 1170.5c0 10.22-8.28 18.5-18.5 18.5s-18.5-8.28-18.5-18.5 8.28-18.5 18.5-18.5 18.5 8.28 18.5 18.5z" stroke="#333" stroke-width="2" fill="#fff"/><path d="M1488 1061v.22l-.02.1-.02.1-.02.1-.02.12-.03.1-.04.1-.04.1-.04.1-.05.12-.06.1-.06.1-.07.13-.08.1-.1.12-.1.12-.1.13-.13.13-.15.14-.17.15-.2.15-.23.16-.27.2-.3.18-.4.2-.45.23-.55.26-.7.28-.87.3-1.14.34-1.53.4-2.1.43-3.04.52-4.7.6-8.06.64-16.72.65-246.54 1.36-36.04 2.97-25.88 3.23-19.47 3.27-15.12 3.2-12.04 3.08-9.78 2.95-8.06 2.8-6.75 2.66-5.7 2.55-4.9 2.42-4.22 2.3-3.66 2.23-3.22 2.14-2.83 2.05-2.52 1.98-2.24 1.93-2 1.9-1.8 1.83-1.62 1.8-1.46 1.76-1.33 1.74-1.2 1.72-1.08 1.7-1 1.72-.88 1.7-.8 1.7-.73 1.7-.65 1.74" stroke="#333" stroke-width="2" fill="none"/><path d="M1491.14 1060.64l-2.72 1.27-.84-1.8.2-.1h3.06zM1026.43 1134.27l-6.5 13.5-2.7-14.74z" fill="#333"/><path d="M1027.93 1133.46l-8.43 17.53-3.5-19.15zm-7.57 11.12l4.57-9.5-6.46-.88z" fill="#333"/><path d="M440 1061v.18l.02.1v.07l.03.1.02.08.02.08.02.1.03.1.04.07.03.1.05.1.05.08.07.1.07.1.07.1.1.1.1.12.1.12.14.12.16.13.18.14.2.14.25.16.3.18.34.2.44.2.53.24.67.26.86.3 1.13.34 1.55.4 2.18.46 3.26.54 5.23.65 9.43.77 21.24.8 323.8 2.4 47 3.85 32.33 4.03 23.5 3.93 17.7 3.74 13.74 3.5 10.9 3.3 8.8 3.05 7.26 2.86 6.03 2.7 5.08 2.5 4.33 2.4 3.73 2.24 3.22 2.13 2.8 2.04 2.48 1.96 2.17 1.88 1.93 1.8 1.72 1.76 1.54 1.7 1.36 1.67 1.24 1.62 1.1 1.6 1 1.56.9 1.55.8 1.55.54 1.12" stroke="#333" stroke-width="2" fill="none"/><path d="M440.4 1060.08l-.8 1.84-2.75-1.2.3-.72h3.05zM1018.86 1147.82l-7.35-13.07 9.1-1.83z" fill="#333"/><path d="M1019.5 1151l-9.54-16.96 11.8-2.37zm-6.45-15.54l5.17 9.2 1.22-10.5z" fill="#333"/><g><path d="M800 1298.66v133.8c0 10.55-32.1 19.1-71.68 19.1-39.6 0-71.68-8.55-71.68-19.1v-133.8l71.68-38.23z" stroke="#333" stroke-width="2" fill="#fff"/></g><a xlink:href="http://" target="_blank"><path d="M1091.68 1298.23v133.8c0 10.56-32.1 19.1-71.68 19.1-39.6 0-71.68-8.54-71.68-19.1v-133.8L1020 1260z" stroke="#333" stroke-width="2" fill="#fff" fill-opacity=".5"/><path class="lucid-link lucid-hotspot lucid-overlay-hotspot" d="M962.66 1283.9h133.8c10.55 0 19.1 32.08 19.1 71.67 0 39.6-8.55 71.68-19.1 71.68h-133.8l-38.23-71.68z" fill="none"/></a><g><path d="M1383.36 1298.23v133.8c0 10.56-32.1 19.1-71.68 19.1-39.6 0-71.68-8.54-71.68-19.1v-133.8l71.68-38.23z" stroke="#333" stroke-width="2" fill="#fff"/></g><path d="M1019.5 1190l-.06 2.95-.17 2.65-.25 2.42-.33 2.22-.4 2.04-.44 1.9-.5 1.76-.53 1.65-.58 1.54-.6 1.47-.67 1.4-.7 1.32-.72 1.27-.77 1.2-.82 1.16-.85 1.12-.9 1.1-.94 1.04-1 1.02-1.07 1-1.13.97-1.2.96-1.28.93-1.37.9-1.48.9-1.6.87-1.73.86-1.9.84-2.07.83-2.3.8-2.55.77-2.87.73-3.25.7-3.72.62-4.3.54-5.1.42-6.1.25h-7.55l-9.7-.42-13.28-1.12-21.35-2.75-96.33-15.1-13.3-1.14-9.67-.42h-7.55l-6.1.24-5.1.42-4.3.55-3.73.6-3.25.7-2.87.74-2.55.77-2.3.8-2.08.83-1.9.84-1.72.86-1.6.88-1.48.9-1.37.9-1.28.94-1.2.95-1.12.97-1.06 1-1 1-.95 1.07-.9 1.08-.86 1.12-.8 1.17-.78 1.22-.73 1.26-.7 1.33-.65 1.4-.6 1.46-.46 1.2" stroke="#333" stroke-width="2" fill="none"/><path d="M1020.5 1190.13l-2-.24.13-1 .87.1 1.15-.15zM735.6 1242.72l-6.78 13.38-2.38-14.8z" fill="#333"/><path d="M737.1 1241.94l-8.78 17.36-3.08-19.2zm-7.78 10.96l4.77-9.4-6.45-1z" fill="#333"/><path d="M1019.5 1190v50.9" stroke="#333" stroke-width="2" fill="none"/><path d="M1019.5 1189l1-.13v1.14h-2v-1.13zM1019.5 1255.9l-4.64-14.27h9.28z" fill="#333"/><path d="M1019.5 1259.13l-6-18.5h12zm-3.26-16.5l3.26 10.03 3.26-10.03z" fill="#333"/><path d="M1019.5 1190l.06 2.95.17 2.66.25 2.44.33 2.22.4 2.04.44 1.9.5 1.77.53 1.65.58 1.55.62 1.47.65 1.4.7 1.32.72 1.26.77 1.2.82 1.18.85 1.12.9 1.08.95 1.05 1 1.03 1.06 1 1.12.96 1.2.95 1.28.92 1.37.9 1.48.9 1.6.88 1.72.86 1.9.84 2.06.82 2.3.8 2.55.76 2.86.74 3.25.68 3.7.63 4.3.54 5.05.42 6.07.24h7.5l9.58-.42 13.1-1.12 20.8-2.67 98.87-15.66 13.1-1.1 9.6-.43h7.48l6.08.25 5.05.4 4.3.55 3.7.62 3.24.7 2.86.72 2.55.76 2.3.8 2.06.82 1.9.84 1.72.86 1.6.87 1.47.9 1.37.9 1.28.93 1.2.95 1.12.97 1.06 1 1 1.02.95 1.05.9 1.1.86 1.1.8 1.17.77 1.22.73 1.26.7 1.32.65 1.4.63 1.46.46 1.24" stroke="#333" stroke-width="2" fill="none"/><path d="M1019.5 1189l.87-.1.12 1-2 .23-.15-1.28zM1311.18 1255.67l-6.77-13.38 9.17-1.44z" fill="#333"/><path d="M1311.68 1258.87l-8.8-17.36 11.9-1.84zm-5.76-15.8l4.76 9.4 1.68-10.4z" fill="#333"/><path d="M605 1331h800v60H605z" stroke="#000" stroke-opacity="0" stroke-width="2" fill="#fff" fill-opacity="0"/><g><use xlink:href="#S" transform="matrix(1,0,0,1,610,1336) translate(58.39999999999998 28.6)"/><use xlink:href="#T" transform="matrix(1,0,0,1,610,1336) translate(125.29999999999998 28.6)"/><use xlink:href="#U" transform="matrix(1,0,0,1,610,1336) translate(361.2 28.6)"/><use xlink:href="#V" transform="matrix(1,0,0,1,610,1336) translate(665.65 28.6)"/></g><defs><path fill="#333" d="M30-248c118-7 216 8 213 122C240-48 200 0 122 0H30v-248zM63-27c89 8 146-16 146-99s-60-101-146-95v194" id="W"/><path fill="#333" d="M205 0l-28-72H64L36 0H1l101-248h38L239 0h-34zm-38-99l-47-123c-12 45-31 82-46 123h93" id="X"/><path fill="#333" d="M127-220V0H93v-220H8v-28h204v28h-85" id="Y"/><g id="a"><use transform="matrix(0.07151955525372126,0,0,0.07151955525372126,0,0)" xlink:href="#W"/><use transform="matrix(0.07151955525372126,0,0,0.07151955525372126,18.523564810713808,0)" xlink:href="#X"/><use transform="matrix(0.07151955525372126,0,0,0.07151955525372126,33.75723007975644,0)" xlink:href="#Y"/><use transform="matrix(0.07151955525372126,0,0,0.07151955525372126,47.48898468847092,0)" xlink:href="#X"/></g><path fill="#333" d="M185-189c-5-48-123-54-124 2 14 75 158 14 163 119 3 78-121 87-175 55-17-10-28-26-33-46l33-7c5 56 141 63 141-1 0-78-155-14-162-118-5-82 145-84 179-34 5 7 8 16 11 25" id="Z"/><path fill="#333" d="M30 0v-248h187v28H63v79h144v27H63v87h162V0H30" id="aa"/><g id="b"><use transform="matrix(0.07151955525372126,0,0,0.07151955525372126,0,0)" xlink:href="#Z"/><use transform="matrix(0.07151955525372126,0,0,0.07151955525372126,17.164693260893102,0)" xlink:href="#aa"/><use transform="matrix(0.07151955525372126,0,0,0.07151955525372126,34.329386521786205,0)" xlink:href="#Y"/><use transform="matrix(0.07151955525372126,0,0,0.07151955525372126,49.992169122351164,0)" xlink:href="#Z"/></g><path fill="#333" d="M212-179c-10-28-35-45-73-45-59 0-87 40-87 99 0 60 29 101 89 101 43 0 62-24 78-52l27 14C228-24 195 4 139 4 59 4 22-46 18-125c-6-104 99-153 187-111 19 9 31 26 39 46" id="ab"/><path fill="#333" d="M140-251c81 0 123 46 123 126C263-46 219 4 140 4 59 4 17-45 17-125s42-126 123-126zm0 227c63 0 89-41 89-101s-29-99-89-99c-61 0-89 39-89 99S79-25 140-24" id="ac"/><path fill="#333" d="M30 0v-248h33v221h125V0H30" id="ad"/><path fill="#333" d="M33 0v-248h34V0H33" id="ae"/><path fill="#333" d="M190 0L58-211 59 0H30v-248h39L202-35l-2-213h31V0h-41" id="af"/><g id="c"><use transform="matrix(0.07151955525372126,0,0,0.07151955525372126,0,0)" xlink:href="#ab"/><use transform="matrix(0.07151955525372126,0,0,0.07151955525372126,18.523564810713808,0)" xlink:href="#ac"/><use transform="matrix(0.07151955525372126,0,0,0.07151955525372126,38.549040281755765,0)" xlink:href="#ad"/><use transform="matrix(0.07151955525372126,0,0,0.07151955525372126,52.85295133250002,0)" xlink:href="#ad"/><use transform="matrix(0.07151955525372126,0,0,0.07151955525372126,67.15686238324427,0)" xlink:href="#aa"/><use transform="matrix(0.07151955525372126,0,0,0.07151955525372126,84.32155564413738,0)" xlink:href="#ab"/><use transform="matrix(0.07151955525372126,0,0,0.07151955525372126,102.84512045485118,0)" xlink:href="#Y"/><use transform="matrix(0.07151955525372126,0,0,0.07151955525372126,118.50790305541614,0)" xlink:href="#ae"/><use transform="matrix(0.07151955525372126,0,0,0.07151955525372126,125.65985858078827,0)" xlink:href="#ac"/><use transform="matrix(0.07151955525372126,0,0,0.07151955525372126,145.6853340518302,0)" xlink:href="#af"/></g><path fill="#333" d="M234-2c-28 10-62 0-77-18C117 19 8 12 13-65c3-43 29-61 60-76-25-40-17-114 47-108 35 3 59 15 59 50 0 44-40 53-71 69 14 26 32 50 51 72 14-21 24-43 30-72l26 8c-9 33-21 57-38 82 13 13 33 22 57 15v23zM97-151c25-10 52-18 56-48-1-18-13-29-33-29-42 0-39 50-23 77zM42-66c-3 51 71 58 98 28-20-24-41-51-56-80-23 10-40 24-42 52" id="ag"/><use transform="matrix(0.07151955525372126,0,0,0.07151955525372126,0,0)" xlink:href="#ag" id="d"/><path fill="#333" d="M232-93c-1 65-40 97-104 97C67 4 28-28 28-90v-158h33c8 89-33 224 67 224 102 0 64-133 71-224h33v155" id="ah"/><path fill="#333" d="M233-177c-1 41-23 64-60 70L243 0h-38l-65-103H63V0H30v-248c88 3 205-21 203 71zM63-129c60-2 137 13 137-47 0-61-80-42-137-45v92" id="ai"/><g id="e"><use transform="matrix(0.07151955525372126,0,0,0.07151955525372126,0,0)" xlink:href="#ab"/><use transform="matrix(0.07151955525372126,0,0,0.07151955525372126,18.523564810713808,0)" xlink:href="#ah"/><use transform="matrix(0.07151955525372126,0,0,0.07151955525372126,37.047129621427615,0)" xlink:href="#ai"/><use transform="matrix(0.07151955525372126,0,0,0.07151955525372126,55.57069443214142,0)" xlink:href="#X"/><use transform="matrix(0.07151955525372126,0,0,0.07151955525372126,70.80435970118404,0)" xlink:href="#Y"/><use transform="matrix(0.07151955525372126,0,0,0.07151955525372126,86.46714230174899,0)" xlink:href="#ae"/><use transform="matrix(0.07151955525372126,0,0,0.07151955525372126,93.61909782712112,0)" xlink:href="#ac"/><use transform="matrix(0.07151955525372126,0,0,0.07151955525372126,113.64457329816307,0)" xlink:href="#af"/></g><g id="f"><use transform="matrix(0.07151955525372126,0,0,0.07151955525372126,0,0)" xlink:href="#ah"/><use transform="matrix(0.07151955525372126,0,0,0.07151955525372126,18.523564810713808,0)" xlink:href="#af"/><use transform="matrix(0.07151955525372126,0,0,0.07151955525372126,37.047129621427615,0)" xlink:href="#ae"/><use transform="matrix(0.07151955525372126,0,0,0.07151955525372126,44.19908514679974,0)" xlink:href="#Y"/></g><g id="g"><use transform="matrix(0.07151955525372126,0,0,0.07151955525372126,0,0)" xlink:href="#W"/><use transform="matrix(0.07151955525372126,0,0,0.07151955525372126,18.523564810713808,0)" xlink:href="#X"/><use transform="matrix(0.07151955525372126,0,0,0.07151955525372126,33.75723007975644,0)" xlink:href="#Y"/><use transform="matrix(0.07151955525372126,0,0,0.07151955525372126,47.48898468847092,0)" xlink:href="#X"/></g><path fill="#333" d="M240 0l2-218c-23 76-54 145-80 218h-23L58-218 59 0H30v-248h44l77 211c21-75 51-140 76-211h43V0h-30" id="aj"/><g id="h"><use transform="matrix(0.07151955525372126,0,0,0.07151955525372126,0,0)" xlink:href="#aj"/><use transform="matrix(0.07151955525372126,0,0,0.07151955525372126,21.38434702086266,0)" xlink:href="#ac"/><use transform="matrix(0.07151955525372126,0,0,0.07151955525372126,41.40982249190461,0)" xlink:href="#W"/><use transform="matrix(0.07151955525372126,0,0,0.07151955525372126,59.93338730261842,0)" xlink:href="#aa"/><use transform="matrix(0.07151955525372126,0,0,0.07151955525372126,77.09808056351153,0)" xlink:href="#ad"/></g><path fill="#333" d="M63-220v92h138v28H63V0H30v-248h175v28H63" id="ak"/><g id="i"><use transform="matrix(0.07151955525372126,0,0,0.07151955525372126,0,0)" xlink:href="#ae"/><use transform="matrix(0.07151955525372126,0,0,0.07151955525372126,7.151955525372126,0)" xlink:href="#af"/><use transform="matrix(0.07151955525372126,0,0,0.07151955525372126,25.675520336085935,0)" xlink:href="#Y"/><use transform="matrix(0.07151955525372126,0,0,0.07151955525372126,41.33830293665089,0)" xlink:href="#aa"/><use transform="matrix(0.07151955525372126,0,0,0.07151955525372126,58.50299619754399,0)" xlink:href="#ai"/><use transform="matrix(0.07151955525372126,0,0,0.07151955525372126,77.0265610082578,0)" xlink:href="#ak"/><use transform="matrix(0.07151955525372126,0,0,0.07151955525372126,91.25895250374833,0)" xlink:href="#X"/><use transform="matrix(0.07151955525372126,0,0,0.07151955525372126,108.42364576464144,0)" xlink:href="#ab"/><use transform="matrix(0.07151955525372126,0,0,0.07151955525372126,126.94721057535524,0)" xlink:href="#aa"/></g><path fill="#3aa6dd" d="M185-189c-5-48-123-54-124 2 14 75 158 14 163 119 3 78-121 87-175 55-17-10-28-26-33-46l33-7c5 56 141 63 141-1 0-78-155-14-162-118-5-82 145-84 179-34 5 7 8 16 11 25" id="al"/><path fill="#3aa6dd" d="M33 0v-248h34V0H33" id="am"/><path fill="#3aa6dd" d="M240 0l2-218c-23 76-54 145-80 218h-23L58-218 59 0H30v-248h44l77 211c21-75 51-140 76-211h43V0h-30" id="an"/><path fill="#3aa6dd" d="M140-251c81 0 123 46 123 126C263-46 219 4 140 4 59 4 17-45 17-125s42-126 123-126zm0 227c63 0 89-41 89-101s-29-99-89-99c-61 0-89 39-89 99S79-25 140-24" id="ao"/><path fill="#3aa6dd" d="M190 0L58-211 59 0H30v-248h39L202-35l-2-213h31V0h-41" id="ap"/><g id="j"><use transform="matrix(0.10012737735520977,0,0,0.10012737735520977,0,0)" xlink:href="#al"/><use transform="matrix(0.10012737735520977,0,0,0.10012737735520977,24.030570565250343,0)" xlink:href="#am"/><use transform="matrix(0.10012737735520977,0,0,0.10012737735520977,34.04330830077132,0)" xlink:href="#an"/><use transform="matrix(0.10012737735520977,0,0,0.10012737735520977,63.981394129979044,0)" xlink:href="#ao"/><use transform="matrix(0.10012737735520977,0,0,0.10012737735520977,92.01705978943778,0)" xlink:href="#ap"/><use transform="matrix(0.10012737735520977,0,0,0.10012737735520977,117.9500505244371,0)" xlink:href="#al"/></g><path fill="#3aa6dd" d="M212-179c-10-28-35-45-73-45-59 0-87 40-87 99 0 60 29 101 89 101 43 0 62-24 78-52l27 14C228-24 195 4 139 4 59 4 22-46 18-125c-6-104 99-153 187-111 19 9 31 26 39 46" id="aq"/><path fill="#3aa6dd" d="M30 0v-248h187v28H63v79h144v27H63v87h162V0H30" id="ar"/><path fill="#3aa6dd" d="M205 0l-28-72H64L36 0H1l101-248h38L239 0h-34zm-38-99l-47-123c-12 45-31 82-46 123h93" id="as"/><g id="k"><use transform="matrix(0.10012737735520977,0,0,0.10012737735520977,0,0)" xlink:href="#ao"/><use transform="matrix(0.10012737735520977,0,0,0.10012737735520977,28.035665659458736,0)" xlink:href="#aq"/><use transform="matrix(0.10012737735520977,0,0,0.10012737735520977,53.968656394458066,0)" xlink:href="#ar"/><use transform="matrix(0.10012737735520977,0,0,0.10012737735520977,77.99922695970841,0)" xlink:href="#as"/><use transform="matrix(0.10012737735520977,0,0,0.10012737735520977,102.02979752495875,0)" xlink:href="#ap"/></g><path fill="#3aa6dd" d="M127-220V0H93v-220H8v-28h204v28h-85" id="at"/><path fill="#3aa6dd" d="M30 0v-248h33v221h125V0H30" id="au"/><g id="l"><use transform="matrix(0.10012737735520977,0,0,0.10012737735520977,0,0)" xlink:href="#as"/><use transform="matrix(0.10012737735520977,0,0,0.10012737735520977,21.32713137665968,0)" xlink:href="#at"/><use transform="matrix(0.10012737735520977,0,0,0.10012737735520977,43.255027017450615,0)" xlink:href="#au"/><use transform="matrix(0.10012737735520977,0,0,0.10012737735520977,63.28050248849257,0)" xlink:href="#as"/><use transform="matrix(0.10012737735520977,0,0,0.10012737735520977,87.31107305374292,0)" xlink:href="#al"/></g><path fill="#3aa6dd" d="M30-248c87 1 191-15 191 75 0 78-77 80-158 76V0H30v-248zm33 125c57 0 124 11 124-50 0-59-68-47-124-48v98" id="av"/><path fill="#3aa6dd" d="M233-177c-1 41-23 64-60 70L243 0h-38l-65-103H63V0H30v-248c88 3 205-21 203 71zM63-129c60-2 137 13 137-47 0-61-80-42-137-45v92" id="aw"/><g id="m"><use transform="matrix(0.10012737735520977,0,0,0.10012737735520977,0,0)" xlink:href="#av"/><use transform="matrix(0.10012737735520977,0,0,0.10012737735520977,24.030570565250343,0)" xlink:href="#aw"/><use transform="matrix(0.10012737735520977,0,0,0.10012737735520977,49.96356130024967,0)" xlink:href="#ao"/><use transform="matrix(0.10012737735520977,0,0,0.10012737735520977,77.99922695970841,0)" xlink:href="#aq"/><use transform="matrix(0.10012737735520977,0,0,0.10012737735520977,103.93221769470775,0)" xlink:href="#ar"/><use transform="matrix(0.10012737735520977,0,0,0.10012737735520977,127.96278825995809,0)" xlink:href="#al"/><use transform="matrix(0.10012737735520977,0,0,0.10012737735520977,151.99335882520842,0)" xlink:href="#al"/></g><path fill="#3aa6dd" d="M63-220v92h138v28H63V0H30v-248h175v28H63" id="ax"/><path fill="#3aa6dd" d="M266 0h-40l-56-210L115 0H75L2-248h35L96-30l15-64 43-154h32l59 218 59-218h35" id="ay"/><g id="n"><use transform="matrix(0.10012737735520977,0,0,0.10012737735520977,0,0)" xlink:href="#ax"/><use transform="matrix(0.10012737735520977,0,0,0.10012737735520977,21.92789564079094,0)" xlink:href="#au"/><use transform="matrix(0.10012737735520977,0,0,0.10012737735520977,41.953371111832894,0)" xlink:href="#ao"/><use transform="matrix(0.10012737735520977,0,0,0.10012737735520977,69.98903677129164,0)" xlink:href="#ay"/></g><path d="M185-189c-5-48-123-54-124 2 14 75 158 14 163 119 3 78-121 87-175 55-17-10-28-26-33-46l33-7c5 56 141 63 141-1 0-78-155-14-162-118-5-82 145-84 179-34 5 7 8 16 11 25" id="az"/><path d="M24-231v-30h32v30H24zM24 0v-190h32V0H24" id="aA"/><path d="M210-169c-67 3-38 105-44 169h-31v-121c0-29-5-50-35-48C34-165 62-65 56 0H25l-1-190h30c1 10-1 24 2 32 10-44 99-50 107 0 11-21 27-35 58-36 85-2 47 119 55 194h-31v-121c0-29-5-49-35-48" id="aB"/><path d="M100-194c62-1 85 37 85 99 1 63-27 99-86 99S16-35 15-95c0-66 28-99 85-99zM99-20c44 1 53-31 53-75 0-43-8-75-51-75s-53 32-53 75 10 74 51 75" id="aC"/><path d="M117-194c89-4 53 116 60 194h-32v-121c0-31-8-49-39-48C34-167 62-67 57 0H25l-1-190h30c1 10-1 24 2 32 11-22 29-35 61-36" id="aD"/><path d="M135-143c-3-34-86-38-87 0 15 53 115 12 119 90S17 21 10-45l28-5c4 36 97 45 98 0-10-56-113-15-118-90-4-57 82-63 122-42 12 7 21 19 24 35" id="aE"/><g id="o"><use transform="matrix(0.05,0,0,0.05,0,0)" xlink:href="#az"/><use transform="matrix(0.05,0,0,0.05,12,0)" xlink:href="#aA"/><use transform="matrix(0.05,0,0,0.05,15.949999999999998,0)" xlink:href="#aB"/><use transform="matrix(0.05,0,0,0.05,30.899999999999995,0)" xlink:href="#aC"/><use transform="matrix(0.05,0,0,0.05,40.9,0)" xlink:href="#aD"/><use transform="matrix(0.05,0,0,0.05,50.9,0)" xlink:href="#aE"/></g><path d="M63-220v92h138v28H63V0H30v-248h175v28H63" id="aF"/><path d="M84 4C-5 8 30-112 23-190h32v120c0 31 7 50 39 49 72-2 45-101 50-169h31l1 190h-30c-1-10 1-25-2-33-11 22-28 36-60 37" id="aG"/><path d="M85-194c31 0 48 13 60 33l-1-100h32l1 261h-30c-2-10 0-23-3-31C134-8 116 4 85 4 32 4 16-35 15-94c0-66 23-100 70-100zm9 24c-40 0-46 34-46 75 0 40 6 74 45 74 42 0 51-32 51-76 0-42-9-74-50-73" id="aH"/><path d="M100-194c63 0 86 42 84 106H49c0 40 14 67 53 68 26 1 43-12 49-29l28 8c-11 28-37 45-77 45C44 4 14-33 15-96c1-61 26-98 85-98zm52 81c6-60-76-77-97-28-3 7-6 17-6 28h103" id="aI"/><g id="p"><use transform="matrix(0.05,0,0,0.05,0,0)" xlink:href="#aF"/><use transform="matrix(0.05,0,0,0.05,10.950000000000001,0)" xlink:href="#aG"/><use transform="matrix(0.05,0,0,0.05,20.950000000000003,0)" xlink:href="#aD"/><use transform="matrix(0.05,0,0,0.05,30.950000000000003,0)" xlink:href="#aH"/><use transform="matrix(0.05,0,0,0.05,40.95,0)" xlink:href="#aI"/><use transform="matrix(0.05,0,0,0.05,50.95,0)" xlink:href="#aH"/></g><path d="M141-36C126-15 110 5 73 4 37 3 15-17 15-53c-1-64 63-63 125-63 3-35-9-54-41-54-24 1-41 7-42 31l-33-3c5-37 33-52 76-52 45 0 72 20 72 64v82c-1 20 7 32 28 27v20c-31 9-61-2-59-35zM48-53c0 20 12 33 32 33 41-3 63-29 60-74-43 2-92-5-92 41" id="aJ"/><path d="M59-47c-2 24 18 29 38 22v24C64 9 27 4 27-40v-127H5v-23h24l9-43h21v43h35v23H59v120" id="aK"/><g id="q"><use transform="matrix(0.05,0,0,0.05,0,0)" xlink:href="#aH"/><use transform="matrix(0.05,0,0,0.05,10,0)" xlink:href="#aJ"/><use transform="matrix(0.05,0,0,0.05,20,0)" xlink:href="#aK"/><use transform="matrix(0.05,0,0,0.05,25,0)" xlink:href="#aJ"/></g><path d="M27 0v-27h64v-190l-56 39v-29l58-41h29v221h61V0H27" id="aL"/><g id="r"><use transform="matrix(0.05,0,0,0.05,0,0)" xlink:href="#aE"/><use transform="matrix(0.05,0,0,0.05,9,0)" xlink:href="#aI"/><use transform="matrix(0.05,0,0,0.05,19,0)" xlink:href="#aK"/><use transform="matrix(0.034999999999999996,0,0,0.034999999999999996,24,2.5199999999999996)" xlink:href="#aL"/></g><path d="M30-248c118-7 216 8 213 122C240-48 200 0 122 0H30v-248zM63-27c89 8 146-16 146-99s-60-101-146-95v194" id="aM"/><g id="s"><use transform="matrix(0.05,0,0,0.05,0,0)" xlink:href="#aM"/><use transform="matrix(0.05,0,0,0.05,12.950000000000001,0)" xlink:href="#az"/><use transform="matrix(0.034999999999999996,0,0,0.034999999999999996,24.950000000000003,2.5199999999999996)" xlink:href="#aL"/></g><path d="M24 0v-261h32V0H24" id="aN"/><path d="M177-190C167-65 218 103 67 71c-23-6-38-20-44-43l32-5c15 47 100 32 89-28v-30C133-14 115 1 83 1 29 1 15-40 15-95c0-56 16-97 71-98 29-1 48 16 59 35 1-10 0-23 2-32h30zM94-22c36 0 50-32 50-73 0-42-14-75-50-75-39 0-46 34-46 75s6 73 46 73" id="aO"/><g id="t"><use transform="matrix(0.05,0,0,0.05,0,0)" xlink:href="#aH"/><use transform="matrix(0.05,0,0,0.05,10,0)" xlink:href="#aI"/><use transform="matrix(0.05,0,0,0.05,20,0)" xlink:href="#aN"/><use transform="matrix(0.05,0,0,0.05,23.95,0)" xlink:href="#aI"/><use transform="matrix(0.05,0,0,0.05,33.95,0)" xlink:href="#aO"/><use transform="matrix(0.05,0,0,0.05,43.95,0)" xlink:href="#aJ"/><use transform="matrix(0.05,0,0,0.05,53.95,0)" xlink:href="#aK"/><use transform="matrix(0.05,0,0,0.05,58.95,0)" xlink:href="#aI"/></g><g id="u"><use transform="matrix(0.05,0,0,0.05,0,0)" xlink:href="#aE"/><use transform="matrix(0.05,0,0,0.05,9,0)" xlink:href="#aI"/><use transform="matrix(0.05,0,0,0.05,19,0)" xlink:href="#aK"/><use transform="matrix(0.034999999999999996,0,0,0.034999999999999996,24,2.5199999999999996)" xlink:href="#aD"/></g><g id="v"><use transform="matrix(0.05,0,0,0.05,0,0)" xlink:href="#aM"/><use transform="matrix(0.05,0,0,0.05,12.950000000000001,0)" xlink:href="#az"/><use transform="matrix(0.034999999999999996,0,0,0.034999999999999996,24.950000000000003,2.5199999999999996)" xlink:href="#aD"/></g><path d="M30 0v-248h187v28H63v79h144v27H63v87h162V0H30" id="aP"/><path d="M141 0L90-78 38 0H4l68-98-65-92h35l48 74 47-74h35l-64 92 68 98h-35" id="aQ"/><path d="M114-163C36-179 61-72 57 0H25l-1-190h30c1 12-1 29 2 39 6-27 23-49 58-41v29" id="aR"/><g id="w"><use transform="matrix(0.05,0,0,0.05,0,0)" xlink:href="#aP"/><use transform="matrix(0.05,0,0,0.05,12,0)" xlink:href="#aQ"/><use transform="matrix(0.05,0,0,0.05,21,0)" xlink:href="#aK"/><use transform="matrix(0.05,0,0,0.05,26,0)" xlink:href="#aI"/><use transform="matrix(0.05,0,0,0.05,36,0)" xlink:href="#aR"/><use transform="matrix(0.05,0,0,0.05,41.95,0)" xlink:href="#aD"/><use transform="matrix(0.05,0,0,0.05,51.95,0)" xlink:href="#aJ"/><use transform="matrix(0.05,0,0,0.05,61.95,0)" xlink:href="#aN"/></g><g id="x"><use transform="matrix(0.05,0,0,0.05,0,0)" xlink:href="#aH"/><use transform="matrix(0.05,0,0,0.05,10,0)" xlink:href="#aJ"/><use transform="matrix(0.05,0,0,0.05,20,0)" xlink:href="#aK"/><use transform="matrix(0.05,0,0,0.05,25,0)" xlink:href="#aJ"/></g><path d="M118-107v75H92v-75H18v-26h74v-75h26v75h74v26h-74" id="aS"/><g id="y"><use transform="matrix(0.05,0,0,0.05,0,0)" xlink:href="#aE"/><use transform="matrix(0.05,0,0,0.05,9,0)" xlink:href="#aI"/><use transform="matrix(0.05,0,0,0.05,19,0)" xlink:href="#aK"/><use transform="matrix(0.034999999999999996,0,0,0.034999999999999996,24,2.5199999999999996)" xlink:href="#aD"/><use transform="matrix(0.034999999999999996,0,0,0.034999999999999996,31,2.5199999999999996)" xlink:href="#aS"/><use transform="matrix(0.034999999999999996,0,0,0.034999999999999996,38.35,2.5199999999999996)" xlink:href="#aL"/></g><g id="z"><use transform="matrix(0.05,0,0,0.05,0,0)" xlink:href="#aM"/><use transform="matrix(0.05,0,0,0.05,12.950000000000001,0)" xlink:href="#az"/><use transform="matrix(0.034999999999999996,0,0,0.034999999999999996,24.950000000000003,2.5199999999999996)" xlink:href="#aD"/><use transform="matrix(0.034999999999999996,0,0,0.034999999999999996,31.950000000000003,2.5199999999999996)" xlink:href="#aS"/><use transform="matrix(0.034999999999999996,0,0,0.034999999999999996,39.300000000000004,2.5199999999999996)" xlink:href="#aL"/></g><g id="A"><use transform="matrix(0.05,0,0,0.05,0,0)" xlink:href="#aE"/><use transform="matrix(0.05,0,0,0.05,9,0)" xlink:href="#aI"/><use transform="matrix(0.05,0,0,0.05,19,0)" xlink:href="#aK"/><use transform="matrix(0.034999999999999996,0,0,0.034999999999999996,24,2.5199999999999996)" xlink:href="#aD"/><use transform="matrix(0.034999999999999996,0,0,0.034999999999999996,31,2.5199999999999996)" xlink:href="#aS"/><use transform="matrix(0.034999999999999996,0,0,0.034999999999999996,38.35,2.5199999999999996)" xlink:href="#aB"/></g><g id="B"><use transform="matrix(0.05,0,0,0.05,0,0)" xlink:href="#aM"/><use transform="matrix(0.05,0,0,0.05,12.950000000000001,0)" xlink:href="#az"/><use transform="matrix(0.034999999999999996,0,0,0.034999999999999996,24.950000000000003,2.5199999999999996)" xlink:href="#aD"/><use transform="matrix(0.034999999999999996,0,0,0.034999999999999996,31.950000000000003,2.5199999999999996)" xlink:href="#aS"/><use transform="matrix(0.034999999999999996,0,0,0.034999999999999996,39.300000000000004,2.5199999999999996)" xlink:href="#aB"/></g><path d="M33 0v-38h34V0H33" id="aT"/><g id="C"><use transform="matrix(0.08582346630446551,0,0,0.08582346630446551,0,0)" xlink:href="#aT"/><use transform="matrix(0.08582346630446551,0,0,0.08582346630446551,8.582346630446551,0)" xlink:href="#aT"/><use transform="matrix(0.08582346630446551,0,0,0.08582346630446551,17.164693260893102,0)" xlink:href="#aT"/></g><path d="M137 0h-34L2-248h35l83 218 83-218h36" id="aU"/><g id="D"><use transform="matrix(0.05,0,0,0.05,0,0)" xlink:href="#aU"/><use transform="matrix(0.05,0,0,0.05,10.65,0)" xlink:href="#aJ"/><use transform="matrix(0.05,0,0,0.05,20.65,0)" xlink:href="#aN"/><use transform="matrix(0.05,0,0,0.05,24.599999999999998,0)" xlink:href="#aA"/><use transform="matrix(0.05,0,0,0.05,28.549999999999997,0)" xlink:href="#aH"/><use transform="matrix(0.05,0,0,0.05,38.55,0)" xlink:href="#aJ"/><use transform="matrix(0.05,0,0,0.05,48.55,0)" xlink:href="#aK"/><use transform="matrix(0.05,0,0,0.05,53.54999999999999,0)" xlink:href="#aI"/></g><path d="M205 0l-28-72H64L36 0H1l101-248h38L239 0h-34zm-38-99l-47-123c-12 45-31 82-46 123h93" id="aV"/><path d="M115-194c55 1 70 41 70 98S169 2 115 4C84 4 66-9 55-30l1 105H24l-1-265h31l2 30c10-21 28-34 59-34zm-8 174c40 0 45-34 45-75s-6-73-45-74c-42 0-51 32-51 76 0 43 10 73 51 73" id="aW"/><path d="M108 0H70L1-190h34L89-25l56-165h34" id="aX"/><g id="E"><use transform="matrix(0.05,0,0,0.05,0,0)" xlink:href="#aV"/><use transform="matrix(0.05,0,0,0.05,12,0)" xlink:href="#aW"/><use transform="matrix(0.05,0,0,0.05,22,0)" xlink:href="#aW"/><use transform="matrix(0.05,0,0,0.05,32,0)" xlink:href="#aR"/><use transform="matrix(0.05,0,0,0.05,37.95,0)" xlink:href="#aC"/><use transform="matrix(0.05,0,0,0.05,47.95,0)" xlink:href="#aX"/><use transform="matrix(0.05,0,0,0.05,56.95,0)" xlink:href="#aI"/></g><path d="M209 0H11v-25l151-195H24v-28h176v25L50-27h159V0" id="aY"/><g id="F"><use transform="matrix(0.05,0,0,0.05,0,0)" xlink:href="#aY"/><use transform="matrix(0.05,0,0,0.05,10.950000000000001,0)" xlink:href="#aI"/><use transform="matrix(0.05,0,0,0.05,20.950000000000003,0)" xlink:href="#aD"/><use transform="matrix(0.05,0,0,0.05,30.950000000000003,0)" xlink:href="#aC"/><use transform="matrix(0.05,0,0,0.05,40.95,0)" xlink:href="#aH"/><use transform="matrix(0.05,0,0,0.05,50.95,0)" xlink:href="#aC"/></g><path d="M115-194c53 0 69 39 70 98 0 66-23 100-70 100C84 3 66-7 56-30L54 0H23l1-261h32v101c10-23 28-34 59-34zm-8 174c40 0 45-34 45-75 0-40-5-75-45-74-42 0-51 32-51 76 0 43 10 73 51 73" id="aZ"/><g id="G"><use transform="matrix(0.05,0,0,0.05,0,0)" xlink:href="#az"/><use transform="matrix(0.05,0,0,0.05,12,0)" xlink:href="#aG"/><use transform="matrix(0.05,0,0,0.05,22,0)" xlink:href="#aZ"/><use transform="matrix(0.05,0,0,0.05,32,0)" xlink:href="#aB"/><use transform="matrix(0.05,0,0,0.05,46.95,0)" xlink:href="#aA"/><use transform="matrix(0.05,0,0,0.05,50.900000000000006,0)" xlink:href="#aE"/><use transform="matrix(0.05,0,0,0.05,59.900000000000006,0)" xlink:href="#aE"/><use transform="matrix(0.05,0,0,0.05,68.9,0)" xlink:href="#aA"/><use transform="matrix(0.05,0,0,0.05,72.85000000000001,0)" xlink:href="#aC"/><use transform="matrix(0.05,0,0,0.05,82.85000000000001,0)" xlink:href="#aD"/></g><path d="M137-103V0h-34v-103L8-248h37l75 118 75-118h37" id="ba"/><g id="H"><use transform="matrix(0.05,0,0,0.05,0,0)" xlink:href="#ba"/><use transform="matrix(0.05,0,0,0.05,10.35,0)" xlink:href="#aI"/><use transform="matrix(0.05,0,0,0.05,20.35,0)" xlink:href="#aE"/></g><path d="M190 0L58-211 59 0H30v-248h39L202-35l-2-213h31V0h-41" id="bb"/><g id="I"><use transform="matrix(0.05,0,0,0.05,0,0)" xlink:href="#bb"/><use transform="matrix(0.05,0,0,0.05,12.950000000000001,0)" xlink:href="#aC"/></g><path d="M140-251c81 0 123 46 123 126C263-46 219 4 140 4 59 4 17-45 17-125s42-126 123-126zm0 227c63 0 89-41 89-101s-29-99-89-99c-61 0-89 39-89 99S79-25 140-24" id="bc"/><path d="M33 0v-248h34V0H33" id="bd"/><g id="J"><use transform="matrix(0.05,0,0,0.05,0,0)" xlink:href="#aM"/><use transform="matrix(0.05,0,0,0.05,12.950000000000001,0)" xlink:href="#bc"/><use transform="matrix(0.05,0,0,0.05,26.950000000000003,0)" xlink:href="#bd"/></g><path d="M233-177c-1 41-23 64-60 70L243 0h-38l-65-103H63V0H30v-248c88 3 205-21 203 71zM63-129c60-2 137 13 137-47 0-61-80-42-137-45v92" id="be"/><path d="M179-190L93 31C79 59 56 82 12 73V49c39 6 53-20 64-50L1-190h34L92-34l54-156h33" id="bf"/><g id="K"><use transform="matrix(0.05,0,0,0.05,0,0)" xlink:href="#be"/><use transform="matrix(0.05,0,0,0.05,12.950000000000001,0)" xlink:href="#aI"/><use transform="matrix(0.05,0,0,0.05,22.950000000000003,0)" xlink:href="#aW"/><use transform="matrix(0.05,0,0,0.05,32.95,0)" xlink:href="#aC"/><use transform="matrix(0.05,0,0,0.05,42.95,0)" xlink:href="#aE"/><use transform="matrix(0.05,0,0,0.05,51.95,0)" xlink:href="#aA"/><use transform="matrix(0.05,0,0,0.05,55.900000000000006,0)" xlink:href="#aK"/><use transform="matrix(0.05,0,0,0.05,60.900000000000006,0)" xlink:href="#aC"/><use transform="matrix(0.05,0,0,0.05,70.9,0)" xlink:href="#aR"/><use transform="matrix(0.05,0,0,0.05,76.85000000000001,0)" xlink:href="#bf"/></g><g id="L"><use transform="matrix(0.05,0,0,0.05,0,0)" xlink:href="#aM"/><use transform="matrix(0.05,0,0,0.05,12.950000000000001,0)" xlink:href="#aJ"/><use transform="matrix(0.05,0,0,0.05,22.950000000000003,0)" xlink:href="#aK"/><use transform="matrix(0.05,0,0,0.05,27.950000000000003,0)" xlink:href="#aJ"/><use transform="matrix(0.05,0,0,0.05,37.95,0)" xlink:href="#aZ"/><use transform="matrix(0.05,0,0,0.05,47.95,0)" xlink:href="#aJ"/><use transform="matrix(0.05,0,0,0.05,57.95,0)" xlink:href="#aE"/><use transform="matrix(0.05,0,0,0.05,66.95,0)" xlink:href="#aI"/></g><g id="M"><use transform="matrix(0.05,0,0,0.05,0,0)" xlink:href="#bd"/><use transform="matrix(0.05,0,0,0.05,5,0)" xlink:href="#aD"/><use transform="matrix(0.05,0,0,0.05,15,0)" xlink:href="#aO"/><use transform="matrix(0.05,0,0,0.05,25,0)" xlink:href="#aI"/><use transform="matrix(0.05,0,0,0.05,35,0)" xlink:href="#aE"/><use transform="matrix(0.05,0,0,0.05,44,0)" xlink:href="#aK"/><use transform="matrix(0.05,0,0,0.05,49,0)" xlink:href="#aA"/><use transform="matrix(0.05,0,0,0.05,52.95,0)" xlink:href="#aC"/><use transform="matrix(0.05,0,0,0.05,62.95,0)" xlink:href="#aD"/></g><path d="M30-248c87 1 191-15 191 75 0 78-77 80-158 76V0H30v-248zm33 125c57 0 124 11 124-50 0-59-68-47-124-48v98" id="bg"/><g id="N"><use transform="matrix(0.05,0,0,0.05,0,0)" xlink:href="#bg"/><use transform="matrix(0.05,0,0,0.05,12,0)" xlink:href="#aA"/><use transform="matrix(0.05,0,0,0.05,15.949999999999998,0)" xlink:href="#aW"/><use transform="matrix(0.05,0,0,0.05,25.950000000000003,0)" xlink:href="#aI"/><use transform="matrix(0.05,0,0,0.05,35.95,0)" xlink:href="#aN"/><use transform="matrix(0.05,0,0,0.05,39.900000000000006,0)" xlink:href="#aA"/><use transform="matrix(0.05,0,0,0.05,43.85000000000001,0)" xlink:href="#aD"/><use transform="matrix(0.05,0,0,0.05,53.85,0)" xlink:href="#aI"/></g><path d="M160-131c35 5 61 23 61 61C221 17 115-2 30 0v-248c76 3 177-17 177 60 0 33-19 50-47 57zm-97-11c50-1 110 9 110-42 0-47-63-36-110-37v79zm0 115c55-2 124 14 124-45 0-56-70-42-124-44v89" id="bh"/><g id="O"><use transform="matrix(0.05,0,0,0.05,0,0)" xlink:href="#aM"/><use transform="matrix(0.05,0,0,0.05,12.950000000000001,0)" xlink:href="#bh"/></g><g id="P"><use transform="matrix(0.05,0,0,0.05,0,0)" xlink:href="#aV"/><use transform="matrix(0.05,0,0,0.05,12,0)" xlink:href="#bg"/><use transform="matrix(0.05,0,0,0.05,24,0)" xlink:href="#bd"/></g><g id="Q"><use transform="matrix(0.05,0,0,0.05,0,0)" xlink:href="#be"/><use transform="matrix(0.05,0,0,0.05,12.950000000000001,0)" xlink:href="#aI"/><use transform="matrix(0.05,0,0,0.05,22.950000000000003,0)" xlink:href="#aW"/><use transform="matrix(0.05,0,0,0.05,32.95,0)" xlink:href="#aC"/></g><g id="R"><use transform="matrix(0.05,0,0,0.05,0,0)" xlink:href="#az"/><use transform="matrix(0.05,0,0,0.05,12,0)" xlink:href="#aK"/><use transform="matrix(0.05,0,0,0.05,17,0)" xlink:href="#aC"/><use transform="matrix(0.05,0,0,0.05,27,0)" xlink:href="#aW"/></g><path d="M212-179c-10-28-35-45-73-45-59 0-87 40-87 99 0 60 29 101 89 101 43 0 62-24 78-52l27 14C228-24 195 4 139 4 59 4 22-46 18-125c-6-104 99-153 187-111 19 9 31 26 39 46" id="bi"/><g id="S"><use transform="matrix(0.05,0,0,0.05,0,0)" xlink:href="#bi"/><use transform="matrix(0.05,0,0,0.05,12.950000000000001,0)" xlink:href="#aG"/><use transform="matrix(0.05,0,0,0.05,22.950000000000003,0)" xlink:href="#aE"/><use transform="matrix(0.05,0,0,0.05,31.950000000000003,0)" xlink:href="#aK"/><use transform="matrix(0.05,0,0,0.05,36.95,0)" xlink:href="#aC"/><use transform="matrix(0.05,0,0,0.05,46.95,0)" xlink:href="#aB"/></g><path d="M96-169c-40 0-48 33-48 73s9 75 48 75c24 0 41-14 43-38l32 2c-6 37-31 61-74 61-59 0-76-41-82-99-10-93 101-131 147-64 4 7 5 14 7 22l-32 3c-4-21-16-35-41-35" id="bj"/><g id="T"><use transform="matrix(0.05,0,0,0.05,0,0)" xlink:href="#az"/><use transform="matrix(0.05,0,0,0.05,12,0)" xlink:href="#bj"/><use transform="matrix(0.05,0,0,0.05,21,0)" xlink:href="#aR"/><use transform="matrix(0.05,0,0,0.05,26.950000000000003,0)" xlink:href="#aA"/><use transform="matrix(0.05,0,0,0.05,30.899999999999995,0)" xlink:href="#aW"/><use transform="matrix(0.05,0,0,0.05,40.9,0)" xlink:href="#aK"/></g><path d="M266 0h-40l-56-210L115 0H75L2-248h35L96-30l15-64 43-154h32l59 218 59-218h35" id="bk"/><path d="M0 4l72-265h28L28 4H0" id="bl"/><path d="M240 0l2-218c-23 76-54 145-80 218h-23L58-218 59 0H30v-248h44l77 211c21-75 51-140 76-211h43V0h-30" id="bm"/><g id="U"><use transform="matrix(0.05,0,0,0.05,0,0)" xlink:href="#bk"/><use transform="matrix(0.05,0,0,0.05,16.599999999999998,0)" xlink:href="#aI"/><use transform="matrix(0.05,0,0,0.05,26.599999999999994,0)" xlink:href="#aZ"/><use transform="matrix(0.05,0,0,0.05,36.599999999999994,0)" xlink:href="#bl"/><use transform="matrix(0.05,0,0,0.05,41.599999999999994,0)" xlink:href="#bm"/><use transform="matrix(0.05,0,0,0.05,56.54999999999999,0)" xlink:href="#aC"/><use transform="matrix(0.05,0,0,0.05,66.55,0)" xlink:href="#aZ"/><use transform="matrix(0.05,0,0,0.05,76.55,0)" xlink:href="#aA"/><use transform="matrix(0.05,0,0,0.05,80.5,0)" xlink:href="#aN"/><use transform="matrix(0.05,0,0,0.05,84.45,0)" xlink:href="#aI"/></g><path d="M143 0L79-87 56-68V0H24v-261h32v163l83-92h37l-77 82L181 0h-38" id="bn"/><g id="V"><use transform="matrix(0.05,0,0,0.05,0,0)" xlink:href="#aM"/><use transform="matrix(0.05,0,0,0.05,12.950000000000001,0)" xlink:href="#aI"/><use transform="matrix(0.05,0,0,0.05,22.950000000000003,0)" xlink:href="#aE"/><use transform="matrix(0.05,0,0,0.05,31.950000000000003,0)" xlink:href="#bn"/><use transform="matrix(0.05,0,0,0.05,40.95,0)" xlink:href="#aK"/><use transform="matrix(0.05,0,0,0.05,45.95,0)" xlink:href="#aC"/><use transform="matrix(0.05,0,0,0.05,55.95,0)" xlink:href="#aW"/></g></defs></g></svg>